<svg id="Layer_1" data-name="Layer 1" xmlns="http://www.w3.org/2000/svg" viewBox="0 0 177.45 152.89"><defs><style>.cls-1{fill:#876c26;}.cls-2{fill:#7c5117;}.cls-3{fill:#5b3913;}.cls-4{fill:#5d5d5d;}.cls-5{fill:#908371;}.cls-6{fill:#155c46;}.cls-7{fill:#b37435;}.cls-8{fill:#892f3f;}.cls-9{fill:#4d4c4b;}.cls-10{fill:#549a80;}</style></defs><path class="cls-1" d="M149,187.94H88q0-12.36,0-24.72V151.29q0-42.7,0-85.4l55-.27h6.21l-.14,0q0,42.82.07,85.63v11.93Q149.07,175.58,149,187.94Zm-31.14-54.57v17.51h12.77V126.66l-6.67-.35v-5.55H106.47v12.61Zm-6-48.72H94.32v17.42H118V90.71h18.62V72.05h-24.7ZM94.38,157.49V168.7h29.15V157.49Z" transform="translate(-14.27 -35.05)"/><path class="cls-1" d="M161,65.89h18.75l.5,5.67h11.5V181.93H180.3l-.51,6H161q0-12.36-.05-24.72c.06-2,.11-4,.17-6h5.62V145.39h-5.6v-31h11.56V102.62H161.11Q161,84.26,161,65.89Z" transform="translate(-14.27 -35.05)"/><path class="cls-1" d="M51,65.89l18-.27h6.22l-.15,0-.12,31H63.48V114.4H74.89l.19,36.89v11.93l0,24.72H51v-5.29l-5.68-1V72.29L51,71Z" transform="translate(-14.27 -35.05)"/><path class="cls-2" d="M51,65.89V71l-5.68,1.3V181.62l5.68,1v5.29H39v-5.81H33l0,0V71.68l0,0,6-.29V65.89Z" transform="translate(-14.27 -35.05)"/><path class="cls-2" d="M25.91,182.22H14.27V71.6H25.91l.3.3v110Z" transform="translate(-14.27 -35.05)"/><path class="cls-3" d="M161,65.89q.08,18.36.14,36.73v42.77l-.24,5.85-11.79,0q0-42.81-.07-85.63Z" transform="translate(-14.27 -35.05)"/><path class="cls-1" d="M75,35.05h73.85v6.81H75l0,0Z" transform="translate(-14.27 -35.05)"/><path class="cls-2" d="M75,41.86h73.87V47.8l-5.89.12-67.85-.06Q75,44.86,75,41.86Z" transform="translate(-14.27 -35.05)"/><path class="cls-3" d="M75,187.94q0-12.36,0-24.72H87.92q0,12.36,0,24.72Z" transform="translate(-14.27 -35.05)"/><path class="cls-3" d="M160.92,163.22q0,12.36.05,24.72H149q0-12.36.05-24.72Z" transform="translate(-14.27 -35.05)"/><path class="cls-4" d="M75,41.86l.12,6q0,8.89.08,17.77H68.94q.12-11.9.23-23.79l5.82.05Z" transform="translate(-14.27 -35.05)"/><path class="cls-4" d="M142.94,47.92l5.89-.12q.16,8.91.32,17.83h-6.21Z" transform="translate(-14.27 -35.05)"/><path class="cls-2" d="M75,41.88l-5.82-.05V35.05H75Z" transform="translate(-14.27 -35.05)"/><path class="cls-2" d="M25.91,71.6V65.89H33c0,1.94,0,3.88,0,5.81l0,0-6.8.22Z" transform="translate(-14.27 -35.05)"/><path class="cls-2" d="M33,187.93H26.23l-.32-5.71.3-.3,6.8.22,0,0C33,184.06,33,186,33,187.93Z" transform="translate(-14.27 -35.05)"/><path class="cls-3" d="M33,71.7c0-1.93,0-3.87,0-5.81h6v5.52Z" transform="translate(-14.27 -35.05)"/><path class="cls-3" d="M33,187.93c0-1.94,0-3.87,0-5.81h6v5.81Z" transform="translate(-14.27 -35.05)"/><path class="cls-3" d="M75,65.66l13,.23q0,42.69,0,85.4H75.08q-.09-18.43-.19-36.89V96.64Z" transform="translate(-14.27 -35.05)"/><path class="cls-5" d="M111.89,84.65V72.05h24.7V90.71H118l-5.73-.45Z" transform="translate(-14.27 -35.05)"/><path class="cls-6" d="M111.89,84.65l.35,5.61,5.73.45v11.36H94.32V84.65Z" transform="translate(-14.27 -35.05)"/><path class="cls-7" d="M94.38,157.49h29.15V168.7H94.38Z" transform="translate(-14.27 -35.05)"/><path class="cls-8" d="M124,126.31l6.67.35v24.22H117.89V133.37c.14-2.19.28-4.38.43-6.71Z" transform="translate(-14.27 -35.05)"/><path class="cls-5" d="M124,126.31l-5.67.35c-.15,2.33-.29,4.52-.43,6.71H106.47V120.76H124Z" transform="translate(-14.27 -35.05)"/><path class="cls-9" d="M75.08,151.29H87.92v11.93H75.08Z" transform="translate(-14.27 -35.05)"/><path class="cls-9" d="M160.92,163.22H149.08V151.29l11.79,0c.07,2,.15,4,.22,6S161,161.22,160.92,163.22Z" transform="translate(-14.27 -35.05)"/><path class="cls-10" d="M161.11,114.39V102.62h11.56v11.77Z" transform="translate(-14.27 -35.05)"/><path class="cls-5" d="M161.09,157.24c-.07-2-.15-4-.22-6l.24-5.85h5.6v11.85Z" transform="translate(-14.27 -35.05)"/><path class="cls-5" d="M74.89,96.64V114.4H63.48V96.64Z" transform="translate(-14.27 -35.05)"/><path class="cls-3" d="M33,182.14l-6.8-.22V71.9l6.8-.22Z" transform="translate(-14.27 -35.05)"/></svg>