<svg id="Layer_1" data-name="Layer 1" xmlns="http://www.w3.org/2000/svg" viewBox="0 0 165.07 183.52"><defs><style>.cls-1{fill:#a7a66f;}.cls-2{fill:#a8a770;}.cls-3{fill:#e4e3d3;}.cls-4{fill:#ebe8e1;}.cls-5{fill:#aaa970;}.cls-6{fill:#e4e1d8;}.cls-7{fill:#f3f2e8;}.cls-8{fill:#b2b07f;}.cls-9{fill:#faf9f8;}.cls-10{fill:#cecbaa;}.cls-11{fill:#d5d2b8;}.cls-12{fill:#f6f6f1;}.cls-13{fill:#d8d6bf;}.cls-14{fill:#bcba90;}.cls-15{fill:#acab78;}.cls-16{fill:#b6b485;}.cls-17{fill:#fcf7c9;}.cls-18{fill:#dddcc8;}.cls-19{fill:#c7c4a1;}.cls-20{fill:#f9f19d;}.cls-21{fill:#fbf5bc;}.cls-22{fill:#e0d06e;}.cls-23{fill:#fbf4b2;}.cls-24{fill:#cfcc89;}.cls-25{fill:#cbc5b3;}.cls-26{fill:#d6d0c2;}.cls-27{fill:#faf2a7;}.cls-28{fill:#ebe7ba;}.cls-29{fill:#e8da7a;}</style></defs><path class="cls-1" d="M60.15,57.14V74.69l-5.92.62V117.9L54.11,124l0,0-6,0V69.43L54,68.6V57.08l.2-6,5.92.08Z" transform="translate(-11.44 -8.35)"/><path class="cls-2" d="M114.71,26H103.15l-.51,7.16H91.06L84.91,33c0-2.32.09-4.63.14-7l0,0,5.84-.18H97v-6l5.94-.05,6,0,5.9.24C114.75,22.07,114.73,24,114.71,26Z" transform="translate(-11.44 -8.35)"/><path class="cls-3" d="M72.05,13.81V8.46h30.86V14l0,.13h-6L72,14.26Z" transform="translate(-11.44 -8.35)"/><path class="cls-4" d="M139.73,149V124.05l5.89-.09.11.1c0,2.33,0,4.65,0,7v12c0,2,0,4,0,6l-.1.1Z" transform="translate(-11.44 -8.35)"/><path class="cls-1" d="M108.79,191.88l-23.8,0c0-1.93,0-3.86,0-5.79L85,186l5.92-.1h6l5.86.11,5.82.09Z" transform="translate(-11.44 -8.35)"/><path class="cls-2" d="M11.51,118q0-12,0-23.95L17.13,94l.33,12-.29,12Z" transform="translate(-11.44 -8.35)"/><path class="cls-5" d="M29.19,56.89c0-2-.07-3.91-.1-5.87s.15-4,.23-6l0,0L36.23,45l.12,6V63.09h-7Z" transform="translate(-11.44 -8.35)"/><path class="cls-6" d="M176.51,131l0,12-6.88,0V131Z" transform="translate(-11.44 -8.35)"/><path class="cls-6" d="M176.48,63l0,12-6.91,0V63Z" transform="translate(-11.44 -8.35)"/><path class="cls-1" d="M77.89,186.07l-5.84-.21c0-1.89,0-3.78,0-5.67l12.87-.12L85,186l-.08.09Z" transform="translate(-11.44 -8.35)"/><path class="cls-2" d="M60,124.11q.13,3.4.26,6.81,0,3-.07,6.09l-5.87,0L54,131l.17-7,0,0Z" transform="translate(-11.44 -8.35)"/><path class="cls-2" d="M72.15,45.13C72.08,47,72,49,72,50.88l-5.9.09,0,.06-.18-6,.49-5.88H72Z" transform="translate(-11.44 -8.35)"/><path class="cls-6" d="M163.58,155H151.67c0-2,0-3.92,0-5.88v-.15l12,.11Z" transform="translate(-11.44 -8.35)"/><path class="cls-7" d="M114.71,26c0-1.94,0-3.88.05-5.82s0-4.06,0-6.09l.07-.07,5.57.27V25.66Z" transform="translate(-11.44 -8.35)"/><path class="cls-8" d="M17.13,94,11.5,94q0-6-.05-11.94L17.33,82l.12,6,0,6.06Z" transform="translate(-11.44 -8.35)"/><path class="cls-6" d="M139.76,75V63l5.88,0V75Z" transform="translate(-11.44 -8.35)"/><path class="cls-6" d="M163.58,88H151.67c0-2,0-3.94,0-5.91h12Z" transform="translate(-11.44 -8.35)"/><path class="cls-9" d="M96.86,167.05h11.58c.16,2.24.29,4.1.43,6l0,0-6,0-5.8-.25Z" transform="translate(-11.44 -8.35)"/><path class="cls-6" d="M151.67,118.07h11.91l0,5.91-12,.12v-.16C151.66,122,151.66,120,151.67,118.07Z" transform="translate(-11.44 -8.35)"/><path class="cls-6" d="M151.67,51.06h11.91l0,5.91h-12C151.64,55,151.66,53,151.67,51.06Z" transform="translate(-11.44 -8.35)"/><path class="cls-9" d="M66,131.07h6v12L66.26,143c-.1-1.95-.21-3.91-.31-5.86Z" transform="translate(-11.44 -8.35)"/><path class="cls-4" d="M176.51,131l-6.91,0-.07,0c0-2.33,0-4.65,0-7l.09-.09,6.9.08Z" transform="translate(-11.44 -8.35)"/><path class="cls-4" d="M169.6,75l6.91,0v7l-6.9.08-.09-.09c0-2.33,0-4.66,0-7Z" transform="translate(-11.44 -8.35)"/><path class="cls-4" d="M169.6,143l6.88,0,0,6-6.9.08-.09-.1c0-2,0-4,0-6Z" transform="translate(-11.44 -8.35)"/><path class="cls-1" d="M29.36,154.92,29.28,149l0,.08,6.94,0,0,0,.11,6Z" transform="translate(-11.44 -8.35)"/><path class="cls-10" d="M11.44,130.94c0-2.33,0-4.66,0-7l5.83,0c0,2.37-.07,4.73-.11,7.09Z" transform="translate(-11.44 -8.35)"/><path class="cls-4" d="M176.48,63l-6.88,0-.07,0c0-2,0-4,0-6l.09-.1,6.9.08Z" transform="translate(-11.44 -8.35)"/><path class="cls-9" d="M169.61,149.07l6.9-.08v5.69l-7,.32C169.56,153,169.59,151,169.61,149.07Z" transform="translate(-11.44 -8.35)"/><path class="cls-11" d="M29.36,154.92l6.89.12,0-.07.09,5.87-.16.41-6.77-.52Z" transform="translate(-11.44 -8.35)"/><path class="cls-9" d="M169.61,82.06l6.9-.08v5.69l-7,.32C169.56,86,169.59,84,169.61,82.06Z" transform="translate(-11.44 -8.35)"/><path class="cls-12" d="M78.13,154.9l6.57.39c.11,2,.2,3.73.29,5.45l-.07.44L78.13,161l-.21-5.85Z" transform="translate(-11.44 -8.35)"/><path class="cls-13" d="M17.33,82l-5.88.09c0-2.35,0-4.71,0-7.07l5.72,0c0,2.36.07,4.71.11,7.07Z" transform="translate(-11.44 -8.35)"/><path class="cls-11" d="M42.08,32.83l.29-6.36,5.77-.74,0,.45q0,3.42,0,6.84l-5.86.2Z" transform="translate(-11.44 -8.35)"/><path class="cls-4" d="M139.76,75l5.88,0,.08,0q0,3.48,0,7l-.11.1L139.73,82Z" transform="translate(-11.44 -8.35)"/><path class="cls-9" d="M176.51,124.05l-6.9-.08c0-2-.05-4-.07-5.94h6.64C176.3,120.34,176.41,122.19,176.51,124.05Z" transform="translate(-11.44 -8.35)"/><path class="cls-3" d="M54.24,179.91H48.49c-.17-2.51-.31-4.6-.45-6.7l.23-.36,5.81.29Z" transform="translate(-11.44 -8.35)"/><path class="cls-12" d="M36.23,45l-6.93.13V39H36l.45,0c-.08,2-.17,4-.25,6Z" transform="translate(-11.44 -8.35)"/><path class="cls-14" d="M54.24,179.91q-.09-3.37-.16-6.77l.11-.3,6,.16-.05-.05c0,2.27,0,4.54,0,6.82l0,.46Z" transform="translate(-11.44 -8.35)"/><path class="cls-12" d="M85,39.23V45h-7c0-2,.07-4,.11-6l7-.16Z" transform="translate(-11.44 -8.35)"/><path class="cls-9" d="M108.87,173l6,.27V180l-6,0h0l0-7.05Z" transform="translate(-11.44 -8.35)"/><path class="cls-15" d="M77.89,186.07h7c0,1.93,0,3.86,0,5.79H78.31Z" transform="translate(-11.44 -8.35)"/><path class="cls-9" d="M176.51,57l-6.9-.08c0-2-.05-4-.07-5.94h6.64C176.3,53.33,176.41,55.19,176.51,57Z" transform="translate(-11.44 -8.35)"/><path class="cls-7" d="M108.85,14V8.35h5.73c.1,2.07.19,3.84.29,5.62l-.07.07-6,0Z" transform="translate(-11.44 -8.35)"/><path class="cls-9" d="M54.07,19.82l.26-5.47L60.12,14c0,1.93,0,3.85,0,5.78l-5.93.31Z" transform="translate(-11.44 -8.35)"/><path class="cls-4" d="M60.13,19.8c0-1.93,0-3.85,0-5.78l6.07.07q-.06,3-.11,5.95l-6,.17Z" transform="translate(-11.44 -8.35)"/><path class="cls-16" d="M66.08,20q0-3,.11-5.94l5.86-.27,0,.44c0,1.85,0,3.71,0,5.56l0,.38L66,20Z" transform="translate(-11.44 -8.35)"/><path class="cls-17" d="M108.86,19.89l-6,0,0-5.79,0-.13,5.94,0v.09C108.85,16,108.85,18,108.86,19.89Z" transform="translate(-11.44 -8.35)"/><path class="cls-7" d="M48.14,25.73V20.47l5.93-.65.13.29c-.07,1.94-.13,3.89-.2,5.83l-5.81.24Z" transform="translate(-11.44 -8.35)"/><path class="cls-10" d="M36,39l.55-5.62,5.57-.58.23.39c0,1.94-.08,3.89-.13,5.84l.06-.06H36.41Z" transform="translate(-11.44 -8.35)"/><path class="cls-10" d="M84.91,33l6.15.12c-.12,1.73-.24,3.47-.37,5.5L85,39.23l0-.43,0-5.86Z" transform="translate(-11.44 -8.35)"/><path class="cls-10" d="M78,39c0,2-.07,4-.11,6l-5.77.17-.18-6,.11-.35,6,.19Z" transform="translate(-11.44 -8.35)"/><path class="cls-9" d="M29.32,45.05q-.12,3-.23,6H23.72l-.46-5.63Z" transform="translate(-11.44 -8.35)"/><path class="cls-15" d="M60.15,57.14c0-2,0-4,0-6l-.07-.36,6,.2,0-.06-.09,6Z" transform="translate(-11.44 -8.35)"/><path class="cls-3" d="M66,56.92l.09-6,5.9-.09v6Z" transform="translate(-11.44 -8.35)"/><path class="cls-9" d="M139.73,57V51.35l6-.33c0,2-.05,4-.08,5.94Z" transform="translate(-11.44 -8.35)"/><path class="cls-4" d="M145.63,57c0-2,.05-4,.08-5.94l6,0c0,2,0,3.94,0,5.91l.05.08h-6Z" transform="translate(-11.44 -8.35)"/><path class="cls-4" d="M169.54,51c0,2,.05,4,.07,5.94l-.09.1h-6l0-.08,0-5.91Z" transform="translate(-11.44 -8.35)"/><path class="cls-16" d="M29.19,56.89c0,2.07.08,4.13.11,6.2l0-.05-5.89.12-.26-.26.28-5.62Z" transform="translate(-11.44 -8.35)"/><path class="cls-4" d="M139.73,57l5.9-.07.1.1c0,2,0,4,0,6l-.08,0-5.88,0Z" transform="translate(-11.44 -8.35)"/><path class="cls-16" d="M17.12,69l.4-5.72,5.65-.39.26.26-.12,5.93,0,0L17.56,69Z" transform="translate(-11.44 -8.35)"/><path class="cls-18" d="M17.18,75l-5.72,0V69.29L17.12,69l.44,0C17.43,71,17.31,73,17.18,75Z" transform="translate(-11.44 -8.35)"/><path class="cls-8" d="M17.31,124l-5.83,0,0-6,5.66,0,.34-.09c-.08,2-.15,4.06-.23,6.09Z" transform="translate(-11.44 -8.35)"/><path class="cls-3" d="M11.44,130.94l5.76.15.17-.09.17,6-.45,0H11.44Z" transform="translate(-11.44 -8.35)"/><path class="cls-11" d="M66,131.07c0,2,0,4,0,6l-5.81-.1q0-3,.07-6.09Z" transform="translate(-11.44 -8.35)"/><path class="cls-4" d="M151.67,118.07c0,2,0,3.91,0,5.87l-5.92.12-.11-.1.09-5.92Z" transform="translate(-11.44 -8.35)"/><path class="cls-12" d="M72.28,149h5.33c.19,2.16.36,4,.52,5.86l-.21.21-5.81-.22c-.09-2-.17-3.92-.26-5.88Z" transform="translate(-11.44 -8.35)"/><path class="cls-9" d="M139.73,149l5.9.08c0,2,.05,4,.08,5.93h-5.66Z" transform="translate(-11.44 -8.35)"/><path class="cls-4" d="M145.71,155c0-2-.05-4-.08-5.93l.1-.1,5.92.12c0,2,0,3.92,0,5.88Z" transform="translate(-11.44 -8.35)"/><path class="cls-14" d="M23.21,143.05H17.67c-.21-2.26-.4-4.15-.58-6l.45,0,5.63-.09c.06,2,.12,4.05.17,6.08Z" transform="translate(-11.44 -8.35)"/><path class="cls-4" d="M169.61,149.07c0,2-.05,4-.07,5.93l-6,0,0-5.92,0-.07h6Z" transform="translate(-11.44 -8.35)"/><path class="cls-4" d="M169.54,118c0,2,.05,4,.07,5.94l-.09.09h-6l0-.07,0-5.91Z" transform="translate(-11.44 -8.35)"/><path class="cls-3" d="M42,167.14l-5.46-.46c-.14-2-.27-3.71-.39-5.43l.16-.41,5.92.22-.06-.07q.09,3,.2,5.91Z" transform="translate(-11.44 -8.35)"/><path class="cls-8" d="M29.28,149H23.54c-.12-2.14-.23-4-.33-5.92l.13,0,5.8.06.18-.07-.08,6Z" transform="translate(-11.44 -8.35)"/><path class="cls-4" d="M169.61,82.06c0,2-.05,4-.07,5.93l-6,0,0-5.91,0-.07h6Z" transform="translate(-11.44 -8.35)"/><path class="cls-18" d="M85,160.74l5.65.64c.16,1.92.3,3.68.44,5.44l-.26.37-5.61-.49-.29-5.52Z" transform="translate(-11.44 -8.35)"/><path class="cls-18" d="M48,173.21l-5.49-.55c-.2-2-.39-3.76-.57-5.52l.37-.24,5.7.18.22,5.77Z" transform="translate(-11.44 -8.35)"/><path class="cls-13" d="M96.86,167.05l.15,5.76-.18.4-5.9-.18-.11-5.84.26-.37Z" transform="translate(-11.44 -8.35)"/><path class="cls-19" d="M66.26,143l5.74.13q.15,3,.28,5.94l-.43,0H66.06c-.08-2-.17-4-.25-6Z" transform="translate(-11.44 -8.35)"/><path class="cls-10" d="M60,124.11,54.11,124l.12-6.13,5.72.38Z" transform="translate(-11.44 -8.35)"/><path class="cls-18" d="M66.18,185.91H60.39l-.31-5.68,0-.46,6,.24Z" transform="translate(-11.44 -8.35)"/><path class="cls-15" d="M66.18,185.91l-.09-5.9-.06,0,6-.22-.07.36,0,5.67Z" transform="translate(-11.44 -8.35)"/><path class="cls-4" d="M151.63,82.05c0,2,0,3.94,0,5.91l-6,0-.09-5.92.11-.1h6Z" transform="translate(-11.44 -8.35)"/><path class="cls-12" d="M114.84,180h5.42v5.77l-5.46.28,0,0,.06-6.07Z" transform="translate(-11.44 -8.35)"/><path class="cls-9" d="M145.71,118l-.09,5.92-5.89.09v-5.69Z" transform="translate(-11.44 -8.35)"/><path class="cls-9" d="M145.62,82.07l.09,5.92h-5.66c-.12-2.31-.22-4.16-.32-6Z" transform="translate(-11.44 -8.35)"/><path class="cls-19" d="M108.79,191.88l-.18-5.82L109,186l5.75.13,0,0v5.83Z" transform="translate(-11.44 -8.35)"/><path class="cls-20" d="M72,39.15H66.41c-.18,2.13-.34,4-.49,5.88H60.37l-.31,5.8.07.36-5.92-.08H48.64v5.7l5.37.27V68.6l-5.82.83V131H54c.09,2,.19,4,.28,6s-.07,3.95-.1,5.93.18,3.74.29,6.05h5.72l0,0v6l-.08.08H54.13v6l-12,0,.06.07q0-3,0-6.06l0,0h5.47v-6H42.23l-6.09,0,0,0c-.11-1.91-.22-3.83-.34-6.08H29.32l-.18.07.09-6L28.88,131H23.39l-.27.12.1-7,.05-6.07V106H17.46l-.33-12,.35.09,5.79-.38V88l0-6.09L23.34,69l0,0,5.92-.15c.11,1.89.23,3.78.35,5.64h6.57L35.86,69H29.18L29.32,63l0,.05h7.05V51l5.8-.29v-5.8L42.24,39l-.06.06L48.06,39l6.11,0L60,38.68V32.93l.17-6.88-.05,0L66,26l6.07-.3V20.2l0-.38,13,.34c0,2,0,3.95,0,5.92l0,0h-7v7l0,0-6,.3V38.8ZM36.19,106h5.47v-6H36.25L36,94.35H29.58V106Zm.43,18.42v6.26h5.25v-6.26Z" transform="translate(-11.44 -8.35)"/><path class="cls-21" d="M54,131h-5.8v-7.09l6,0C54.1,126.33,54.05,128.67,54,131Z" transform="translate(-11.44 -8.35)"/><path class="cls-22" d="M54,57.08l-5.37-.27v-5.7h5.57C54.14,53.1,54.08,55.09,54,57.08Z" transform="translate(-11.44 -8.35)"/><path class="cls-17" d="M78.05,33.07V26h7c0,2.32-.1,4.63-.14,7l0-.05Z" transform="translate(-11.44 -8.35)"/><path class="cls-21" d="M102.86,14.08l0,5.79L97,19.92,97,20l-.15-5.92Z" transform="translate(-11.44 -8.35)"/><path class="cls-3" d="M108.86,19.89c0-1.94,0-3.88,0-5.82l6,0q0,3,0,6.09Z" transform="translate(-11.44 -8.35)"/><path class="cls-23" d="M85,26.08c0-2,0-3.95,0-5.93l5.87,0c0,1.93,0,3.86,0,5.79Z" transform="translate(-11.44 -8.35)"/><path class="cls-24" d="M90.85,25.9c0-1.93,0-3.86,0-5.79L97,20l0-.07v6Z" transform="translate(-11.44 -8.35)"/><path class="cls-2" d="M97,20l-6.14.12-5.87,0-13-.33c0-1.85,0-3.71,0-5.56l24.85-.19Z" transform="translate(-11.44 -8.35)"/><path class="cls-25" d="M145.72,143V131l5.91,0,.05,0,.06,6c0,2,0,4,0,5.95l-.1.09Z" transform="translate(-11.44 -8.35)"/><path class="cls-26" d="M151.63,131l-5.91,0c0-2.33,0-4.65,0-7l5.92-.12v.16Q151.65,127.55,151.63,131Z" transform="translate(-11.44 -8.35)"/><path class="cls-26" d="M145.72,143l5.88.06c0,2,0,3.92.05,5.88v.15l-5.92-.12C145.73,147,145.72,145,145.72,143Z" transform="translate(-11.44 -8.35)"/><path class="cls-21" d="M85,186l-.14-5.9.18-.07,6,0v0l-.06,5.91Z" transform="translate(-11.44 -8.35)"/><path class="cls-23" d="M90.94,185.87,91,180l5.9-.07,0,.32v5.65Z" transform="translate(-11.44 -8.35)"/><path class="cls-21" d="M96.93,185.86c0-1.88,0-3.76,0-5.65l6-.16-.18,5.92Z" transform="translate(-11.44 -8.35)"/><path class="cls-8" d="M102.79,186l.18-5.92-.08,0h5.91c.07,2,.15,3.93.22,5.9l-.41.09Z" transform="translate(-11.44 -8.35)"/><path class="cls-27" d="M17.46,106h5.81v12l-5.76-.08-.34.09Q17.32,112,17.46,106Z" transform="translate(-11.44 -8.35)"/><path class="cls-27" d="M42.15,44.91v5.8l-5.8.29-.12-6-.07.06Z" transform="translate(-11.44 -8.35)"/><path class="cls-25" d="M169.6,131v12l-.07,0-5.92,0,0,0c0-2,0-4-.08-6s0-4,0-6l.09-.09,5.9.06Z" transform="translate(-11.44 -8.35)"/><path class="cls-25" d="M169.6,63V75l-.07,0-5.92,0,0,0c0-2,0-4-.07-6s0-4,0-6l.1-.09,5.89.06Z" transform="translate(-11.44 -8.35)"/><path class="cls-20" d="M84.88,180.07,72,180.19l.07-.35c-.1-2.09-.2-4.18-.32-6.78H66L60.12,173l.05.05c-.11-1.87-.21-3.73-.33-5.77l-5.68-.29.05,0L54.12,161v0h5.92v-5.94l.08-.08h5.79l.47,5.8,5.62.3,0,0,.3,5.47,5.41,1,.73,5.26,6.58.39c0,2.27.05,4.55.07,6.83Z" transform="translate(-11.44 -8.35)"/><path class="cls-8" d="M54.17,142.92c0-2,.07-3.95.1-5.93l5.87,0,5.81.1c.1,1.95.21,3.91.31,5.86l-.45.07H60Z" transform="translate(-11.44 -8.35)"/><path class="cls-21" d="M60.06,50.83l.31-5.8h5.55l.18,6Z" transform="translate(-11.44 -8.35)"/><path class="cls-25" d="M151.65,148.94c0-2,0-3.92-.05-5.88l.1-.09,5.92-.05,5.95.07,0,0c0,2,0,4,0,5.94l0,.07Z" transform="translate(-11.44 -8.35)"/><path class="cls-23" d="M23.24,81.92l0,6.09H17.45l-.12-6,0,0Z" transform="translate(-11.44 -8.35)"/><path class="cls-27" d="M17.45,88h5.82v5.68l-5.79.38Z" transform="translate(-11.44 -8.35)"/><path class="cls-25" d="M145.64,75V63l.08,0,5.91,0,.05,0c0,2,0,4,.07,6s0,4,0,5.95l-.1.09L145.72,75Z" transform="translate(-11.44 -8.35)"/><path class="cls-25" d="M163.61,82.05h-12l.05-.07q0-3.47-.07-6.93l.1-.09,5.91,0,5.95.07,0,0c0,2.31,0,4.63,0,7Z" transform="translate(-11.44 -8.35)"/><path class="cls-10" d="M103,180.05l-6,.16,0-.32c0-2.23-.05-4.46-.07-6.68l.18-.4,5.8.25c0,2.34.06,4.67.08,7Z" transform="translate(-11.44 -8.35)"/><path class="cls-7" d="M102.89,180.07c0-2.34,0-4.67-.08-7l6,0,0,7.05Z" transform="translate(-11.44 -8.35)"/><path class="cls-25" d="M151.63,131q0-3.44,0-6.89l12-.12,0,.07.06,6.93-.09.09-5.92.05-5.94-.08Z" transform="translate(-11.44 -8.35)"/><path class="cls-25" d="M151.63,57h12l0,.08c0,2,0,3.94.07,5.92l-.1.09-5.92,0L151.68,63l-.05,0c0-2,0-4,.05-5.94Z" transform="translate(-11.44 -8.35)"/><path class="cls-26" d="M163.63,131l-.06-6.93h6c0,2.33,0,4.65,0,7Z" transform="translate(-11.44 -8.35)"/><path class="cls-26" d="M163.57,82c0-2.32,0-4.64,0-7l5.92,0c0,2.32,0,4.65,0,7Z" transform="translate(-11.44 -8.35)"/><path class="cls-26" d="M163.57,149c0-2,0-4,0-5.94l5.92,0c0,2,0,4,0,6Z" transform="translate(-11.44 -8.35)"/><path class="cls-21" d="M29.32,143h6.52c.12,2.25.23,4.17.34,6.08l-6.94,0Z" transform="translate(-11.44 -8.35)"/><path class="cls-27" d="M36.14,149.06l6.09,0-.06,6,0,0-6,0,0,.07C36.21,153,36.18,151.05,36.14,149.06Z" transform="translate(-11.44 -8.35)"/><path class="cls-16" d="M23.22,124.09c0,2.33-.07,4.67-.1,7L17.37,131l-.17.09c0-2.36.07-4.72.11-7.09l0,0Z" transform="translate(-11.44 -8.35)"/><path class="cls-26" d="M163.64,63c0-2,0-3.95-.07-5.92h6c0,2,0,4,0,6Z" transform="translate(-11.44 -8.35)"/><path class="cls-5" d="M36.2,155l6,0q0,3,0,6.06l-5.92-.22Z" transform="translate(-11.44 -8.35)"/><path class="cls-2" d="M85,173.17l-6.58-.39-.73-5.26-5.41-1c-.11-1.9-.2-3.69-.3-5.47l6.16-.11,6.79.22c.09,1.77.18,3.54.29,5.52l5.61.49c0,1.95.08,3.9.11,5.84l0,0Z" transform="translate(-11.44 -8.35)"/><path class="cls-16" d="M78.13,161l-6.16.11,0,0q0-3.1.1-6.21l5.81.22Z" transform="translate(-11.44 -8.35)"/><path class="cls-1" d="M23.24,81.92l-5.95.14c0-2.36-.07-4.71-.11-7.07.13-2,.25-4,.38-6l5.78.05Q23.3,75.47,23.24,81.92Z" transform="translate(-11.44 -8.35)"/><path class="cls-5" d="M60.17,26.05c-.06,2.29-.11,4.59-.17,6.88l-5.94.19L48.13,33l0,0q0-3.42,0-6.84L54,25.94Z" transform="translate(-11.44 -8.35)"/><path class="cls-5" d="M48.06,39l-5.88.09c0-2,.09-3.9.13-5.84l5.86-.2,0,0C48.11,35,48.08,37,48.06,39Z" transform="translate(-11.44 -8.35)"/><path class="cls-26" d="M151.61,75.05q0,3.47.07,6.93h-6q0-3.5,0-7Z" transform="translate(-11.44 -8.35)"/><path class="cls-8" d="M48.27,172.85c-.07-1.92-.14-3.85-.22-5.77l6.16-.1-.05,0,0,5.9-.11.3Z" transform="translate(-11.44 -8.35)"/><path class="cls-5" d="M42.15,44.91l-6,.11c.08-2,.17-4,.25-6h5.83Z" transform="translate(-11.44 -8.35)"/><path class="cls-1" d="M60.12,173l5.88.11,0,7,.06,0-6-.24C60.11,177.49,60.11,175.22,60.12,173Z" transform="translate(-11.44 -8.35)"/><path class="cls-1" d="M54.19,172.84l0-5.9,5.68.29c.12,2,.22,3.9.33,5.77Z" transform="translate(-11.44 -8.35)"/><path class="cls-16" d="M78.05,33.07,85,32.94l0,5.86L78,39l0,0c0-2,0-4,0-6Z" transform="translate(-11.44 -8.35)"/><path class="cls-7" d="M109,186c-.07-2-.15-3.94-.22-5.9l6,0-.06,6.07Z" transform="translate(-11.44 -8.35)"/><path class="cls-16" d="M60.17,26.05,54,25.94c.07-1.94.13-3.89.2-5.83l5.93-.31-.07.41.06,5.86Z" transform="translate(-11.44 -8.35)"/><path class="cls-1" d="M60.12,26.07l-.06-5.86,6-.17L66,20c0,2,0,4,0,6Z" transform="translate(-11.44 -8.35)"/><path class="cls-21" d="M66,26c0-2,0-4,0-6l6,.2v5.47Z" transform="translate(-11.44 -8.35)"/><path class="cls-17" d="M78.08,33c0,2,0,4,0,6l-6-.19V33.32Z" transform="translate(-11.44 -8.35)"/><path class="cls-26" d="M151.68,57.05c0,2,0,4-.05,5.94l-5.91,0c0-2,0-4,0-6Z" transform="translate(-11.44 -8.35)"/><path class="cls-5" d="M29.32,63,29.18,69l.05,0-5.92.15.12-5.93Z" transform="translate(-11.44 -8.35)"/><path class="cls-28" d="M23.22,124.09,17.28,124c.08-2,.15-4.06.23-6.09l5.76.08C23.25,120,23.23,122.07,23.22,124.09Z" transform="translate(-11.44 -8.35)"/><path class="cls-1" d="M17.37,131l5.75.09.27-.12c0,2,0,4,0,6l-.18-.07-5.63.09C17.48,135,17.43,133,17.37,131Z" transform="translate(-11.44 -8.35)"/><path class="cls-2" d="M72.11,154.89Q72,158,72,161.1l-5.62-.3c-.16-2.05-.32-3.92-.47-5.8.06-2,.11-4,.17-6l0,0h5.79C71.94,151,72,152.93,72.11,154.89Z" transform="translate(-11.44 -8.35)"/><path class="cls-24" d="M29.23,137.05l-.09,6-5.8-.06c-.05-2-.11-4.05-.17-6.08l.18.07Z" transform="translate(-11.44 -8.35)"/><path class="cls-2" d="M54.21,167l-6.16.1-5.7-.18q-.1-3-.2-5.91l12,0Z" transform="translate(-11.44 -8.35)"/><path class="cls-1" d="M96.83,173.21c0,2.22,0,4.45.07,6.68L91,180v0l0-7,0,0Z" transform="translate(-11.44 -8.35)"/><path class="cls-1" d="M60,143h5.78c.08,2,.17,4,.25,6l0,0-6-.05,0,0Z" transform="translate(-11.44 -8.35)"/><path class="cls-21" d="M66,180.05l0-7h5.76c.12,2.6.22,4.69.32,6.78Z" transform="translate(-11.44 -8.35)"/><path class="cls-22" d="M36.19,106H29.58V94.35H36c.1,2.05.19,3.83.28,5.61Z" transform="translate(-11.44 -8.35)"/><path class="cls-29" d="M29.18,69h6.68l.29,5.59H29.58c-.12-1.86-.24-3.75-.35-5.64Z" transform="translate(-11.44 -8.35)"/><path class="cls-22" d="M36.62,124.38h5.25v6.26H36.62Z" transform="translate(-11.44 -8.35)"/><path class="cls-27" d="M48.06,39c0-2,0-4,.07-6l5.93.14c0,2,.08,3.91.11,5.87Z" transform="translate(-11.44 -8.35)"/><path class="cls-22" d="M54.17,39c0-2-.07-3.91-.11-5.87L60,32.93v5.75Z" transform="translate(-11.44 -8.35)"/><path class="cls-29" d="M36.19,106l.06-6h5.41v6Z" transform="translate(-11.44 -8.35)"/><path class="cls-23" d="M29.23,137.05l-5.88,0c0-2,0-4,0-6h5.49Z" transform="translate(-11.44 -8.35)"/><path class="cls-22" d="M42.17,155l.06-6h5.41v6Z" transform="translate(-11.44 -8.35)"/><path class="cls-21" d="M60.13,149l6,.05c-.06,2-.11,4-.17,6H60.13Z" transform="translate(-11.44 -8.35)"/><path class="cls-29" d="M60.05,155.07V161H54.13v-5.94Z" transform="translate(-11.44 -8.35)"/><path class="cls-27" d="M60,143l.15,5.94H54.46c-.11-2.31-.2-4.18-.29-6.05Z" transform="translate(-11.44 -8.35)"/><path class="cls-22" d="M157.62,142.92l-5.92.05c0-2,0-4,0-5.95l5.9,0C157.63,139,157.63,141,157.62,142.92Z" transform="translate(-11.44 -8.35)"/><path class="cls-20" d="M157.64,137l-5.9,0-.06-6,5.94.07c0,2,0,3.95,0,5.93Z" transform="translate(-11.44 -8.35)"/><path class="cls-23" d="M91,173l0,7-6,0c0-2.28,0-4.56-.07-6.83Z" transform="translate(-11.44 -8.35)"/><path class="cls-20" d="M157.62,142.92c0-2,0-3.95,0-5.92l0,0,5.89,0c0,2,0,4,.08,6Z" transform="translate(-11.44 -8.35)"/><path class="cls-22" d="M163.49,137l-5.89,0c0-2,0-3.95,0-5.93l5.92,0C163.52,133.05,163.51,135,163.49,137Z" transform="translate(-11.44 -8.35)"/><path class="cls-22" d="M157.62,63.1l5.92,0c0,2,0,4,0,6l-5.89,0C157.61,67.05,157.62,65.08,157.62,63.1Z" transform="translate(-11.44 -8.35)"/><path class="cls-20" d="M157.61,69l5.89,0c0,2,.05,4,.07,6l-5.95-.07c0-2,0-4,0-5.92Z" transform="translate(-11.44 -8.35)"/><path class="cls-20" d="M157.62,63.1c0,2,0,3.95,0,5.93l0,0-5.89,0c0-2-.05-4-.07-6Z" transform="translate(-11.44 -8.35)"/><path class="cls-22" d="M151.75,69l5.89,0c0,2,0,4,0,5.92l-5.91,0C151.72,73,151.74,71,151.75,69Z" transform="translate(-11.44 -8.35)"/></svg>