<svg id="Layer_1" data-name="Layer 1" xmlns="http://www.w3.org/2000/svg" viewBox="0 0 152.93 178.16"><defs><style>.cls-1{fill:#a7a66f;}.cls-2{fill:#a8a770;}.cls-3{fill:#aaa970;}.cls-4{fill:#b2b07f;}.cls-5{fill:#d5d2b8;}.cls-6{fill:#cecbaa;}.cls-7{fill:#bcba90;}.cls-8{fill:#b6b485;}.cls-9{fill:#fcf7c9;}.cls-10{fill:#c7c4a1;}.cls-11{fill:#ebe8e1;}.cls-12{fill:#f9f19d;}.cls-13{fill:#fbf5bc;}.cls-14{fill:#e0d06e;}.cls-15{fill:#e4e3d3;}.cls-16{fill:#fbf4b2;}.cls-17{fill:#cfcc89;}.cls-18{fill:#faf2a7;}.cls-19{fill:#ebe7ba;}.cls-20{fill:#e8da7a;}</style></defs><path class="cls-1" d="M57,59V76.6l-5.94.62v42.62c-.05,2-.09,4.09-.13,6.13l0,0-6,0V71.34l5.85-.83V59l.2-6,6,.1C57,55.08,57,57.06,57,59Z" transform="translate(-8.03 -15.7)"/><path class="cls-2" d="M111.85,27.83H100.22L99.71,35H88.07l-6.18-.12c0-2.32.09-4.63.14-7l0,0,5.87-.18H94v-6l6-.05,6,0,5.94.24C111.88,24,111.87,25.89,111.85,27.83Z" transform="translate(-8.03 -15.7)"/><path class="cls-1" d="M8.11,119.93q0-12,0-24l5.65-.06q.18,6,.34,12l-.3,12Z" transform="translate(-8.03 -15.7)"/><path class="cls-1" d="M105.89,193.85H82c0-1.94,0-3.89,0-5.83l.07-.08,5.94-.1h6l5.89.1,5.85.09Z" transform="translate(-8.03 -15.7)"/><path class="cls-3" d="M25.88,58.8c0-2-.07-3.92-.1-5.88s.15-4,.23-6l0,0,7-.13c0,2,.09,4,.13,6V65H26Z" transform="translate(-8.03 -15.7)"/><path class="cls-2" d="M74.82,188.06l-11.73-.19c-.06-2-.11-3.93-.17-5.9l6-.13,12.94.19.14,5.91-.07.08Z" transform="translate(-8.03 -15.7)"/><path class="cls-2" d="M56.8,126.05q.14,3.4.26,6.81L57,139l-5.91,0-.28-6,.17-7,0,0Z" transform="translate(-8.03 -15.7)"/><path class="cls-2" d="M69.06,47c-.06,1.91-.13,3.83-.2,5.75l-5.94.1.06.06-.18-6,.49-5.87h5.59Z" transform="translate(-8.03 -15.7)"/><path class="cls-4" d="M13.75,95.9,8.1,96,8,84l5.92-.1c0,2,.07,4,.1,6l0,6.06Z" transform="translate(-8.03 -15.7)"/><path class="cls-5" d="M38.84,34.72l.29-6.36,5.8-.74,0,.45c0,2.28,0,4.56,0,6.84l-5.89.2Z" transform="translate(-8.03 -15.7)"/><path class="cls-1" d="M26.05,156.88,26,150.93l0,.07,7,0,0,0,.1,6Z" transform="translate(-8.03 -15.7)"/><path class="cls-6" d="M8,132.88c0-2.33,0-4.66.05-7l5.85.06c0,2.36-.07,4.72-.1,7.09Z" transform="translate(-8.03 -15.7)"/><path class="cls-4" d="M74.82,188.06l7.12,0c0,1.94,0,3.89,0,5.83H75.22C75.08,191.85,75,190,74.82,188.06Z" transform="translate(-8.03 -15.7)"/><path class="cls-7" d="M51.06,181.89q-.09-3.39-.16-6.78l.11-.3,6,.16-.05-.05c0,2.27,0,4.55,0,6.82v.46Z" transform="translate(-8.03 -15.7)"/><path class="cls-4" d="M13.93,126l-5.85-.06,0-6,5.68,0,.35-.09q-.12,3-.23,6.1Z" transform="translate(-8.03 -15.7)"/><path class="cls-8" d="M63,21.92c0-2,.07-4,.11-6L69,15.7l0,.44c0,1.86,0,3.71,0,5.56l0,.39-6.07-.21Z" transform="translate(-8.03 -15.7)"/><path class="cls-9" d="M106,21.77l-6,0c0-1.93,0-3.86,0-5.79l0-.13,6,0v5.91Z" transform="translate(-8.03 -15.7)"/><path class="cls-5" d="M62.85,133c0,2,0,4,0,6.05L57,139l.06-6.1Z" transform="translate(-8.03 -15.7)"/><path class="cls-6" d="M32.68,40.92l.55-5.62,5.61-.58.23.39c0,2-.09,3.9-.13,5.85L39,40.9H32.68Z" transform="translate(-8.03 -15.7)"/><path class="cls-6" d="M56.8,126.05,50.93,126c0-2,.08-4.09.13-6.13l5.74.38Z" transform="translate(-8.03 -15.7)"/><path class="cls-7" d="M19.86,145H14.3c-.22-2.26-.4-4.15-.58-6l.45,0,5.66-.09c.06,2,.11,4.05.17,6.08Z" transform="translate(-8.03 -15.7)"/><path class="cls-4" d="M26,150.93H20.2c-.12-2.14-.23-4-.34-5.93l.14,0,5.83.06L26,145l-.08,6Z" transform="translate(-8.03 -15.7)"/><path class="cls-10" d="M63.14,144.92l5.78.13c.09,2,.19,4,.28,5.95l-.43,0L63,151c-.09-2-.17-4-.26-6Z" transform="translate(-8.03 -15.7)"/><path class="cls-6" d="M81.89,34.88l6.18.12c-.12,1.74-.23,3.47-.37,5.51l-5.77.62,0-.43,0-5.87Z" transform="translate(-8.03 -15.7)"/><path class="cls-6" d="M75,40.85c0,2-.07,4-.1,6L69.06,47l-.18-6L69,40.7l6,.19Z" transform="translate(-8.03 -15.7)"/><path class="cls-3" d="M57,59c0-2,0-4,0-5.93l-.09-.36,6.08.19-.06-.06q0,3-.1,5.94Z" transform="translate(-8.03 -15.7)"/><path class="cls-8" d="M25.88,58.8q.06,3.09.11,6.2l0,0-5.92.12-.26-.26.28-5.63Z" transform="translate(-8.03 -15.7)"/><path class="cls-8" d="M13.74,70.92l.41-5.72,5.68-.39.25.26Q20,68,20,71l0,0-5.81,0Z" transform="translate(-8.03 -15.7)"/><path class="cls-11" d="M149,83.89l0,.09" transform="translate(-8.03 -15.7)"/><path class="cls-11" d="M142.93,84l.09-.09" transform="translate(-8.03 -15.7)"/><path class="cls-11" d="M149,89.89" transform="translate(-8.03 -15.7)"/><path class="cls-12" d="M68.88,41.05H63.29c-.18,2.13-.34,4-.49,5.87H57.23l-.33,5.83.09.36L51,53h-5.6v5.7l5.4.27V70.51L45,71.34V133h5.83c.09,2,.19,4,.28,6s-.07,3.95-.1,5.93.18,3.74.29,6H57v6l-.08.08H51V163h0l-12,0L39,163q0-3,0-6.06l0,0h5.5v-6H39l-6.11,0,0,0c-.1-1.91-.21-3.82-.34-6.08H26l-.18.07.09-6-.35-6.07H20.05l-.27.11.09-7,.06-6.07V108H14.09q-.16-6-.34-12l.36.09,5.82-.37V89.93l0-6.09L20,71l0,0,6-.15c.11,1.89.23,3.78.35,5.65h6.61l-.29-5.6H25.87L26,65l0,0h7.09V52.9l5.83-.29v-5.8L39,40.9l-.06.06,5.9-.09,6.15,0,5.86-.32V34.82L57,27.94l0,0,5.9-.11,6.1-.3V22.09l0-.39L82,22,82,28l0,0H75v7l0,0-6,.3v5.47ZM33,101.89l-.28-5.61H26.27v11.61H38.42v-6Zm5.64,24.54H33.36v6.47l5.25-.24Z" transform="translate(-8.03 -15.7)"/><path class="cls-13" d="M50.81,133H45v-7.09l6,0Q50.89,129.45,50.81,133Z" transform="translate(-8.03 -15.7)"/><path class="cls-14" d="M50.83,59l-5.4-.27V53H51C51,55,50.9,57,50.83,59Z" transform="translate(-8.03 -15.7)"/><path class="cls-9" d="M75,35v-7h7c0,2.32-.09,4.63-.14,7l0-.05Z" transform="translate(-8.03 -15.7)"/><path class="cls-13" d="M99.93,16c0,1.93,0,3.86,0,5.79l-6,.05,0,.08L93.89,16Z" transform="translate(-8.03 -15.7)"/><path class="cls-15" d="M106,21.77V16" transform="translate(-8.03 -15.7)"/><path class="cls-15" d="M111.9,22" transform="translate(-8.03 -15.7)"/><path class="cls-16" d="M82,28,82,22l5.9-.05v5.8Z" transform="translate(-8.03 -15.7)"/><path class="cls-17" d="M87.87,27.79V22L94,21.88l0-.08v6Z" transform="translate(-8.03 -15.7)"/><path class="cls-1" d="M94,21.88,87.87,22,82,22l-13-.34c0-1.85,0-3.7,0-5.56l25-.18Z" transform="translate(-8.03 -15.7)"/><path class="cls-18" d="M14.09,108h5.84v12l-5.79-.08-.35.09Z" transform="translate(-8.03 -15.7)"/><path class="cls-13" d="M82,187.94,81.87,182,82,182l6,0v0L88,187.84Z" transform="translate(-8.03 -15.7)"/><path class="cls-16" d="M88,187.84l.06-5.91,5.94-.07v6Z" transform="translate(-8.03 -15.7)"/><path class="cls-13" d="M94,187.84c0-1.89,0-3.77,0-5.66L100,182l-.18,5.92Z" transform="translate(-8.03 -15.7)"/><path class="cls-4" d="M99.86,187.94,100,182l-.07,0h5.93c.08,2,.15,3.93.23,5.9l-.41.09Z" transform="translate(-8.03 -15.7)"/><path class="cls-18" d="M38.91,46.81v5.8l-5.83.29c0-2-.08-4-.13-6l-.07.06Z" transform="translate(-8.03 -15.7)"/><path class="cls-12" d="M81.87,182l-12.94-.19V175H62.88L57,174.92,57,175c-.1-1.87-.21-3.74-.33-5.78L51,168.91l.05,0-.09-6h6V157L57,157h5.83l.46,5.81,5.65.29,0,0c.1,1.79.2,3.57.3,5.47l5.44,1c.27,1.86.49,3.45.74,5.26l6.61.39q0,3.41.07,6.83Z" transform="translate(-8.03 -15.7)"/><path class="cls-13" d="M62.88,175h6.05v6.81l-6,.13L63,182Z" transform="translate(-8.03 -15.7)"/><path class="cls-4" d="M51,144.87c0-2,.07-4,.1-5.93L57,139l5.83.1c.1,1.95.21,3.91.31,5.86l-.45.07H56.88Z" transform="translate(-8.03 -15.7)"/><path class="cls-13" d="M56.9,52.75l.33-5.83H62.8l.18,6Z" transform="translate(-8.03 -15.7)"/><path class="cls-18" d="M19.93,89.93v5.69L14.11,96q0-3,0-6.06Z" transform="translate(-8.03 -15.7)"/><path class="cls-16" d="M19.93,89.93H14.06c0-2-.07-4-.1-6l0,.06,6-.14Z" transform="translate(-8.03 -15.7)"/><path class="cls-6" d="M100,182l-6.08.16v-.32c0-2.23,0-4.46-.08-6.69l.19-.39,5.83.25c0,2.33,0,4.67.08,7Z" transform="translate(-8.03 -15.7)"/><path class="cls-1" d="M19.9,83.84l-6,.14c0-2.36-.08-4.71-.11-7.07.12-2,.25-4,.38-6L20,71Q20,77.38,19.9,83.84Z" transform="translate(-8.03 -15.7)"/><path class="cls-3" d="M57,27.94c-.06,2.29-.11,4.59-.17,6.88l-6,.19-6-.14,0,0c0-2.28,0-4.56,0-6.84l5.84-.24Z" transform="translate(-8.03 -15.7)"/><path class="cls-3" d="M44.84,40.87l-5.9.09c0-2,.09-3.9.13-5.85l5.89-.2,0,0Q44.89,37.86,44.84,40.87Z" transform="translate(-8.03 -15.7)"/><path class="cls-13" d="M26,145h6.55c.13,2.26.24,4.17.34,6.08l-7,0Z" transform="translate(-8.03 -15.7)"/><path class="cls-18" d="M32.87,151,39,151q0,3,0,6l0,0-6,0,0,.06C32.94,155,32.9,153,32.87,151Z" transform="translate(-8.03 -15.7)"/><path class="cls-8" d="M75,35l7-.13,0,5.87-7,.15,0,0c0-2,0-4,0-6Z" transform="translate(-8.03 -15.7)"/><path class="cls-3" d="M32.93,156.93l6,0q0,3,0,6.06L33,162.8Z" transform="translate(-8.03 -15.7)"/><path class="cls-2" d="M82,175.14l-6.61-.39c-.25-1.81-.47-3.4-.74-5.26l-5.44-1c-.1-1.9-.2-3.68-.3-5.47l6.2-.11,6.83.22c.09,1.77.18,3.54.28,5.53l5.64.48L88,175l0,0Z" transform="translate(-8.03 -15.7)"/><path class="cls-8" d="M75.08,162.92l-6.2.11,0,0c0-2.07.07-4.14.1-6.21l5.84.22Q75,160,75.08,162.92Z" transform="translate(-8.03 -15.7)"/><path class="cls-8" d="M19.87,126l-.09,7L14,132.94l-.17.1c0-2.37.07-4.73.1-7.09l0,0Z" transform="translate(-8.03 -15.7)"/><path class="cls-4" d="M45.06,174.82c-.07-1.93-.15-3.85-.22-5.78L51,169l-.05,0,0,5.9-.11.3Z" transform="translate(-8.03 -15.7)"/><path class="cls-3" d="M38.91,46.81l-6,.11c.09-2,.17-4,.26-6H39Z" transform="translate(-8.03 -15.7)"/><path class="cls-1" d="M62.88,175l.12,7-6-.28c0-2.27,0-4.55,0-6.82Z" transform="translate(-8.03 -15.7)"/><path class="cls-1" d="M51,174.81l0-5.9,5.71.28c.12,2,.23,3.91.33,5.78Z" transform="translate(-8.03 -15.7)"/><path class="cls-19" d="M19.87,126l-6-.06q.11-3,.23-6.09l5.79.08Z" transform="translate(-8.03 -15.7)"/><path class="cls-8" d="M57,27.94l-6.2-.11c.07-1.95.13-3.89.2-5.83l6-.32-.07.41c0,2,0,3.92.07,5.87Z" transform="translate(-8.03 -15.7)"/><path class="cls-1" d="M57,28c0-1.95,0-3.91-.07-5.87L63,21.92l-.05,0,0,6Z" transform="translate(-8.03 -15.7)"/><path class="cls-13" d="M62.88,27.85l0-6,6.07.21v5.46Z" transform="translate(-8.03 -15.7)"/><path class="cls-1" d="M14,132.94l5.78.09.27-.11c0,2,0,4,0,6l-.18-.07-5.66.09Q14.08,136,14,132.94Z" transform="translate(-8.03 -15.7)"/><path class="cls-17" d="M25.92,139l-.09,6L20,145c-.06-2-.11-4.05-.17-6.08L20,139Z" transform="translate(-8.03 -15.7)"/><path class="cls-2" d="M69,156.85c0,2.07-.07,4.14-.1,6.21l-5.65-.29c-.16-2.06-.31-3.93-.46-5.81q.07-3,.16-6l0,0,5.82,0C68.85,152.93,68.94,154.89,69,156.85Z" transform="translate(-8.03 -15.7)"/><path class="cls-1" d="M56.88,145h5.81c.09,2,.17,4,.26,6l0,0-6,0H57Z" transform="translate(-8.03 -15.7)"/><path class="cls-9" d="M75,34.92c0,2,0,4,0,6l-6-.19V35.22Z" transform="translate(-8.03 -15.7)"/><path class="cls-2" d="M51,169l-6.19.09-5.73-.18L38.9,163l12,0Z" transform="translate(-8.03 -15.7)"/><path class="cls-1" d="M93.87,175.17c0,2.23,0,4.46.08,6.69l-5.94.07v0l0-7,0,0Z" transform="translate(-8.03 -15.7)"/><path class="cls-3" d="M26,65l-.14,6,.05-.05L20,71q.06-3,.11-5.93Z" transform="translate(-8.03 -15.7)"/><path class="cls-14" d="M32.92,107.89H26.27V96.28h6.42c.1,2,.19,3.83.28,5.61Q33,104.89,32.92,107.89Z" transform="translate(-8.03 -15.7)"/><path class="cls-20" d="M25.87,70.9h6.72l.29,5.6H26.27c-.12-1.87-.24-3.76-.35-5.65Z" transform="translate(-8.03 -15.7)"/><path class="cls-14" d="M38.61,126.43v6.23l-5.25.24v-6.47Z" transform="translate(-8.03 -15.7)"/><path class="cls-20" d="M32.92,107.89q0-3,0-6h5.45v6Z" transform="translate(-8.03 -15.7)"/><path class="cls-16" d="M25.92,139,20,139c0-2,0-4,0-6h5.52Z" transform="translate(-8.03 -15.7)"/><path class="cls-18" d="M44.84,40.87q0-3,.08-6l6,.13c0,2,.08,3.92.11,5.88Z" transform="translate(-8.03 -15.7)"/><path class="cls-14" d="M51,40.89c0-2-.07-3.92-.11-5.88l6-.19v5.75Z" transform="translate(-8.03 -15.7)"/><path class="cls-18" d="M56.88,145l.15,5.93H51.28c-.11-2.31-.2-4.18-.29-6Z" transform="translate(-8.03 -15.7)"/><path class="cls-14" d="M38.93,157q0-3,0-6h5.45v6Z" transform="translate(-8.03 -15.7)"/><path class="cls-13" d="M57,150.91l6,0q-.09,3-.16,6H57Z" transform="translate(-8.03 -15.7)"/><path class="cls-20" d="M56.9,157V163H51V157Z" transform="translate(-8.03 -15.7)"/><path class="cls-16" d="M88,175l0,7-6,0q0-3.42-.07-6.83Z" transform="translate(-8.03 -15.7)"/><path class="cls-14" d="M149,144.92c0-2,0-4,.05-5.95l5.92,0c0,2,0,4,0,5.93Z" transform="translate(-8.03 -15.7)"/><path class="cls-12" d="M155,144.88c0-2,0-4,0-5.93l0,0h5.92c0,2,.05,4,.07,6Z" transform="translate(-8.03 -15.7)"/><path class="cls-12" d="M149.08,70.92q0-3-.07-6l6,.07c0,2,0,3.95,0,5.93Z" transform="translate(-8.03 -15.7)"/><path class="cls-14" d="M155,70.94c0-2,0-4,0-5.93l6,0c0,2,0,4,0,6l-5.92,0Z" transform="translate(-8.03 -15.7)"/><path class="cls-14" d="M149.08,70.92l5.92,0,0,0c0,2,0,3.95,0,5.93l-5.94,0Q149.06,73.9,149.08,70.92Z" transform="translate(-8.03 -15.7)"/><path class="cls-12" d="M155,76.83c0-2,0-4,0-5.93l5.92,0c0,2,.05,4,.07,6Z" transform="translate(-8.03 -15.7)"/><path class="cls-12" d="M155,139l-5.92,0q0-3-.07-6l6,.07c0,2,0,3.95,0,5.92Z" transform="translate(-8.03 -15.7)"/><path class="cls-14" d="M155,139c0-2,0-3.95,0-5.92l6,0c0,2,0,4,0,5.95Z" transform="translate(-8.03 -15.7)"/></svg>