<svg id="Layer_1" data-name="Layer 1" xmlns="http://www.w3.org/2000/svg" viewBox="0 0 123.35 177.39"><defs><style>.cls-1{fill:#14110c;}.cls-2{fill:#987a46;}.cls-3{fill:#766241;}.cls-4{fill:#b39666;}.cls-5{fill:#801a2b;}</style></defs><path class="cls-1" d="M137,33h5.84v11.7l6.1.47V62.89h6.74v80h-6.56v18H143.2c-.12,2.1-.22,3.85-.35,6.16H137l0,0V155.46l6.06-1V137h0l5.82-.26V69.33l-6-.75V51.35L137,50.57V33Z" transform="translate(-32.32 -14.35)"/><path class="cls-1" d="M45,143H39.18V131.28H32.32V75.08h6.59v-12h6.14L45,63l-.08,19,.07-.07-5.8.4v41.4l5.83.69V143Z" transform="translate(-32.32 -14.35)"/><path class="cls-1" d="M124,186v5.72H88v-5.69H75.09v-5.93H69V173l0,0H81.73l.6,7.13H93.66l.73,5.72h11.55l18,.12Z" transform="translate(-32.32 -14.35)"/><path class="cls-1" d="M82.05,26.05v-6H93.88V14.35H131V20l0,0H100v5.94L82,26Z" transform="translate(-32.32 -14.35)"/><path class="cls-1" d="M69.05,33.05v-7h13L82,26l-.08,7,.07-.07L69,33Z" transform="translate(-32.32 -14.35)"/><path class="cls-1" d="M131,20h6V33l0,0h-6V20Z" transform="translate(-32.32 -14.35)"/><path class="cls-1" d="M137,167v13h-6l0,0V167h6Z" transform="translate(-32.32 -14.35)"/><path class="cls-1" d="M45.05,63.05v-12h6L51,51l-.08,12,.07-.07L45,63Z" transform="translate(-32.32 -14.35)"/><path class="cls-1" d="M51,155H45V143l0,0h6v12Z" transform="translate(-32.32 -14.35)"/><path class="cls-1" d="M131,180v6h-7l0,0v-6h7Z" transform="translate(-32.32 -14.35)"/><path class="cls-1" d="M63.05,39.05v-6h6L69,33v6H63Z" transform="translate(-32.32 -14.35)"/><path class="cls-1" d="M57.05,45.05v-6h6L63,39l-.08,6,.07-.07L57,45Z" transform="translate(-32.32 -14.35)"/><path class="cls-1" d="M51.05,51.05v-6h6L57,45l-.08,6,.07-.07L51,51Z" transform="translate(-32.32 -14.35)"/><path class="cls-1" d="M57,161H51v-6l0,0h6v6Z" transform="translate(-32.32 -14.35)"/><path class="cls-1" d="M63,167H57v-6l0,0h6v6Z" transform="translate(-32.32 -14.35)"/><path class="cls-1" d="M69,173H63v-6l0,0h6v6Z" transform="translate(-32.32 -14.35)"/><path class="cls-2" d="M69,173v-6H63v-6H57v-6H51V143H45V124.38l-5.83-.69V118H45V81.89l-.07.07L51,81.67V62.89l-.07.07L57,62.68V50.89l-.07.07H63V44.89l-.07.07H74.45l1.1-5.59L82,38.49v-5.6l-.07.07H100V20h31V33h6V50.57l5.84.78V68.58l6,.75q0,30.77,0,61.61l-5.83.32V137h0l-5.8.33c-.2,4.16-.37,7.72-.53,11.11l-5.46,1.14c-.19,3.81-.36,7.38-.54,11l-6.8,1v11l-5.51.92-.83,6.3-11.37.58c-.1,2.26-.18,3.9-.26,5.55H94.39l-.73-5.72H82.33l-.6-7.13Zm31-73h-5.6c-.37,2.38-.61,4-.87,5.63l-5,.68-1.05,5.31-5.43.83V118H74.94l.39,5.63H82V118H93.51c.43-2.42.7-4,1-5.62l5.48-.81V100h6.08c-.16-2.43-.27-4-.38-5.63H100Zm12,24h-5.64c-.33,2.71-.56,4.62-.8,6.63l-5.08.67c-.38,1.94-.72,3.65-1.05,5.32l-5.43.83V143H88l.38,5.63H94V143h11.54l1-5.62,5.48-.81V124h6.08c-.16-2.43-.27-4-.38-5.63H112ZM69,94H81.51c.43-2.42.7-4,1-5.62L88,87.54V75h6.08c-.16-2.43-.27-4-.38-5.63H88V75H82.4l-.82,6.67-6.07.59-1.05,5.36L69,88.47V94H63l.38,5.63H69Z" transform="translate(-32.32 -14.35)"/><path class="cls-3" d="M105.94,185.86c.08-1.65.16-3.29.26-5.55l11.37-.58.83-6.3,5.51-.92v-11l6.8-1c.18-3.59.35-7.16.54-11l5.46-1.14c.16-3.39.33-6.95.53-11.11L143,137v17.46l-6.06,1V167h-6v13h-7v6Z" transform="translate(-32.32 -14.35)"/><path class="cls-3" d="M143,137v-5.78l5.83-.32c0,1.76,0,3.52,0,5.84Z" transform="translate(-32.32 -14.35)"/><path class="cls-4" d="M45,81.89V118h-5.8V82.29Z" transform="translate(-32.32 -14.35)"/><path class="cls-4" d="M51,62.89V81.67L44.89,82q0-9.49.08-19Z" transform="translate(-32.32 -14.35)"/><path class="cls-4" d="M100,25.93v7H81.89c0-2.33,0-4.66.08-7Z" transform="translate(-32.32 -14.35)"/><path class="cls-4" d="M82,32.89v5.6l-6.41.88L74.45,45H62.89c0-2,0-4,.08-6h6V33Z" transform="translate(-32.32 -14.35)"/><path class="cls-4" d="M57,50.89V62.68L50.89,63q0-6,.08-12Z" transform="translate(-32.32 -14.35)"/><path class="cls-4" d="M63,44.89V51H56.89c0-2,0-4,.08-6Z" transform="translate(-32.32 -14.35)"/><path class="cls-5" d="M69,94V88.47l5.43-.82,1.05-5.36,6.07-.59L82.4,75H88L88,75V87.54l-5.48.81c-.28,1.61-.55,3.2-1,5.62H69Z" transform="translate(-32.32 -14.35)"/><path class="cls-5" d="M94,143v-5.55l5.43-.83c.33-1.67.67-3.38,1.05-5.32l5.08-.67c.24-2,.47-3.92.8-6.63H112L112,124v12.57l-5.48.81-1,5.62H94Z" transform="translate(-32.32 -14.35)"/><path class="cls-5" d="M82,118v-5.55l5.43-.83,1.05-5.31,5-.68c.26-1.67.5-3.25.87-5.63H100L100,100v11.57l-5.48.81c-.28,1.61-.55,3.2-1,5.62H82Z" transform="translate(-32.32 -14.35)"/><path class="cls-5" d="M82,118v5.69H75.33L74.94,118H82Z" transform="translate(-32.32 -14.35)"/><path class="cls-5" d="M88,75V69.34h5.64c.11,1.62.22,3.2.38,5.63H88Z" transform="translate(-32.32 -14.35)"/><path class="cls-5" d="M69,94v5.69H63.33L63,94H69Z" transform="translate(-32.32 -14.35)"/><path class="cls-5" d="M100,100V94.34h5.64c.11,1.62.22,3.2.38,5.63H100Z" transform="translate(-32.32 -14.35)"/><path class="cls-5" d="M112,124v-5.69h5.64c.11,1.62.22,3.2.38,5.63H112Z" transform="translate(-32.32 -14.35)"/><path class="cls-5" d="M94,143v5.69H88.33L88,143H94Z" transform="translate(-32.32 -14.35)"/></svg>