<svg id="Layer_1" data-name="Layer 1" xmlns="http://www.w3.org/2000/svg" viewBox="0 0 182.79 182.74"><defs><style>.cls-1{fill:#462f19;}.cls-2{fill:#1d140f;}.cls-3{fill:#60452a;}.cls-4{fill:#8a7565;}.cls-5{fill:#e5ded9;}.cls-6{fill:#9a6734;}.cls-7{fill:#744f27;}</style></defs><path class="cls-1" d="M44.68,176.07l-5.62-.25-.42-5.6-5.57-.37-.42-5.6-6.53-.41-.33-5.67q0-3,.08-6.09h6.55l.91,5.62,5,.81.8,5,5.17,1.13,1,4.95,5.47.87V176Z" transform="translate(-8.13 -11.95)"/><path class="cls-1" d="M172.27,158.17v5.6l-5.83.43c-.13,1.77-.24,3.51-.38,5.57l-5.56.43c-.15,1.7-.29,3.42-.47,5.53l-5.65.34-6,0v-5.36l5.47-1.34,1.13-4.85,4.84-.92,1-5,5-1c.34-1.78.63-3.36,1-5.48h5.49C172.26,154.14,172.27,156.15,172.27,158.17Z" transform="translate(-8.13 -11.95)"/><path class="cls-2" d="M81.62,12h35.82v5.81L81.7,17.63Z" transform="translate(-8.13 -11.95)"/><path class="cls-2" d="M8.16,121.24l0-35.82,5.69.08v35.78Z" transform="translate(-8.13 -11.95)"/><path class="cls-2" d="M117.44,194.69H81.62l.06-5.66h35.78C117.45,190.91,117.45,192.8,117.44,194.69Z" transform="translate(-8.13 -11.95)"/><path class="cls-2" d="M190.93,85.42l0,35.82-5.72,0-.06-35.84Z" transform="translate(-8.13 -11.95)"/><path class="cls-1" d="M25.74,48.57l.32-5.7,6.56-.38.39-5.6,5.59-.42c.13-2,.26-4.12.42-6.53l5.74-.38-.16.26.17.25v6.49l-.32,5.55-5.34,1L38.3,48.3l-5.57.28H26.26L26,48.41Z" transform="translate(-8.13 -11.95)"/><path class="cls-1" d="M154.3,29.56l5.7.31c.12,2.08.24,4.16.38,6.56l5.6.39c.13,1.75.27,3.49.43,5.58l5.51.45.4,5.72-.26-.16-.26.17h-5.53l-5.52-.3c-.42-2.16-.71-3.72-1-5.3l-5.46-.89v-12l.18-.25Z" transform="translate(-8.13 -11.95)"/><path class="cls-3" d="M185,140.15c0,1.94.05,3.88.08,5.82l-5.8.17-7,0-.06-6h0l6.94,0Z" transform="translate(-8.13 -11.95)"/><path class="cls-3" d="M185,60.69c0,1.94-.06,3.89-.08,5.83H179.1l-6.84-.3V60.48l7,0Z" transform="translate(-8.13 -11.95)"/><path class="cls-1" d="M185,140.15H179.1c0-2,0-4,0-6.05.08-2.28.15-4.56.23-6.83l5.82-.07h0c.05,2.37.09,4.75.13,7.12C185.14,136.26,185.05,138.2,185,140.15Z" transform="translate(-8.13 -11.95)"/><path class="cls-3" d="M142.18,188.83l-5.83-.08v-5.81q0-3.49,0-7h0l6,.05v7C142.29,185,142.24,186.9,142.18,188.83Z" transform="translate(-8.13 -11.95)"/><path class="cls-3" d="M62.71,188.75l-5.84.08c0-1.93-.11-3.86-.16-5.79,0-2.33,0-4.65,0-7h6v12.69Z" transform="translate(-8.13 -11.95)"/><path class="cls-3" d="M56.89,17.83l5.83.09c0,1.92,0,3.84,0,5.77s-.21,3.7-.32,5.9H56.65l.06-6Z" transform="translate(-8.13 -11.95)"/><path class="cls-3" d="M14,146l.09-5.84H20l5.83.31v5.72l-6,0Z" transform="translate(-8.13 -11.95)"/><path class="cls-3" d="M14.1,66.52,14,60.69l5.8-.18,5.92-.07v6.07H14.1Z" transform="translate(-8.13 -11.95)"/><path class="cls-3" d="M136.34,17.92l5.83-.09.18,5.8c0,2,0,4,0,6h-6V23.76C136.35,21.81,136.35,19.87,136.34,17.92Z" transform="translate(-8.13 -11.95)"/><path class="cls-3" d="M81.62,12c0,1.89,0,3.79.08,5.68l-7,.13L74.71,12Z" transform="translate(-8.13 -11.95)"/><path class="cls-4" d="M123.36,12h7v5.66l.22.2-.15.25-7-.31Z" transform="translate(-8.13 -11.95)"/><path class="cls-4" d="M172.27,158.17c0-2,0-4,0-6l-.07,0,6.78-.07.21-.18.22.16c-.14,1.78-.28,3.56-.46,5.77Z" transform="translate(-8.13 -11.95)"/><path class="cls-4" d="M44.68,176.07l6.09-.09-.05,0,0,6.81.18.2-.16.23L45,182.74Z" transform="translate(-8.13 -11.95)"/><path class="cls-4" d="M148.34,176l6,0v6.58l-6.1.53-.16-.22.18-.2.06-6.78Z" transform="translate(-8.13 -11.95)"/><path class="cls-1" d="M81.68,189l-.06,5.65h-6.9c0-1.92-.07-3.85-.11-5.78Z" transform="translate(-8.13 -11.95)"/><path class="cls-4" d="M130.4,189.06v5.63h-7.06l.06-5.79,7.07-.32.15.26Z" transform="translate(-8.13 -11.95)"/><path class="cls-4" d="M172.32,48.57h6.54c.2,2.22.36,4.12.53,6l-.22.17-.21-.18-6.8,0,.07.07c-.15-2-.29-4-.43-6l.26-.17Z" transform="translate(-8.13 -11.95)"/><path class="cls-3" d="M13.82,85.5l-5.69-.08V78.51l5.81-.06Z" transform="translate(-8.13 -11.95)"/><path class="cls-3" d="M190.93,85.42h-5.81l-.15.09.19-7.13,5.77.12Z" transform="translate(-8.13 -11.95)"/><path class="cls-4" d="M13.79,134.2H8.15v-7.07l5.81.05q.15,3.54.29,7.08l-.25.16Z" transform="translate(-8.13 -11.95)"/><path class="cls-4" d="M185.23,134.31c0-2.37-.08-4.75-.13-7.12l5.8,0v6.75Z" transform="translate(-8.13 -11.95)"/><path class="cls-4" d="M74.71,12l-.06,5.81,0,0-6.09.36-.15-.25.21-.21V12Z" transform="translate(-8.13 -11.95)"/><path class="cls-3" d="M123.36,12l.06,5.8,0,0-6.1.1.1-.14V12Z" transform="translate(-8.13 -11.95)"/><path class="cls-5" d="M56.89,17.83l-.18,5.8-6,.29.18-.22-.16-.22V17.83Z" transform="translate(-8.13 -11.95)"/><path class="cls-2" d="M62.71,23.69c0-1.93,0-3.85,0-5.77l5.94-.3-.21.21.15.25c0,1.81,0,3.63,0,5.45Z" transform="translate(-8.13 -11.95)"/><path class="cls-5" d="M142.35,23.63l-.18-5.8H148l.32,5.65-.17.22.19.22Z" transform="translate(-8.13 -11.95)"/><path class="cls-4" d="M44.76,29.56V24l6-.55.16.22-.18.22c0,1.93,0,3.86,0,5.8l.07-.07-6,.42-.17-.25Z" transform="translate(-8.13 -11.95)"/><path class="cls-2" d="M179.1,66.51H185l.3,6-.2-.24-.26.17-5.52,0Z" transform="translate(-8.13 -11.95)"/><path class="cls-4" d="M13.94,78.45l-5.81.06v-6h5.66l.21-.22.26.16-.36,6.08Z" transform="translate(-8.13 -11.95)"/><path class="cls-2" d="M20,140.15H14.1q-.16-3-.31-5.94l.21.22.25-.16,5.53,0Z" transform="translate(-8.13 -11.95)"/><path class="cls-2" d="M14.1,66.52h5.78c-.06,2-.11,3.94-.17,5.91H14.26L14,72.25l-.21.22C13.9,70.49,14,68.5,14.1,66.52Z" transform="translate(-8.13 -11.95)"/><path class="cls-5" d="M185,60.69l-5.8-.18L179,54.57l.21.18.22-.17H185Z" transform="translate(-8.13 -11.95)"/><path class="cls-5" d="M14,146l5.8.17c.09,2,.19,4,.28,5.94l-.21-.18-.22.16H14Z" transform="translate(-8.13 -11.95)"/><path class="cls-1" d="M14,127.18l-5.81-.05c0-2,0-3.93,0-5.89l5.66,0,.26-.14c-.05,2-.1,4-.14,6.07Z" transform="translate(-8.13 -11.95)"/><path class="cls-5" d="M179.25,146.14l5.8-.17v5.79l-5.65.31-.22-.16-.21.18C179.06,150.11,179.16,148.13,179.25,146.14Z" transform="translate(-8.13 -11.95)"/><path class="cls-4" d="M25.87,152.08q0,3-.08,6.09l-5.6-.26-.53-5.84.22-.16.21.18,5.81,0Z" transform="translate(-8.13 -11.95)"/><path class="cls-5" d="M19.81,60.51l-5.8.18V54.9l5.65-.31.23.16.21-.18C20,56.55,19.91,58.53,19.81,60.51Z" transform="translate(-8.13 -11.95)"/><path class="cls-4" d="M190.93,78.51l-5.77-.12v.07l-.35-6.06.26-.17.2.24h5.67Z" transform="translate(-8.13 -11.95)"/><path class="cls-4" d="M19.66,54.59l.5-6h5.58l.27-.16.25.17q-.21,3-.43,6l.08-.08-5.81,0-.21.18Z" transform="translate(-8.13 -11.95)"/><path class="cls-2" d="M136.34,17.92c0,1.95,0,3.89,0,5.84l-5.92-.17,0-5.52.15-.25-.22-.2Z" transform="translate(-8.13 -11.95)"/><path class="cls-5" d="M56.71,183c0,1.93.11,3.86.16,5.79H51.09c-.12-2.16-.22-3.9-.31-5.64l.16-.23-.18-.2Z" transform="translate(-8.13 -11.95)"/><path class="cls-2" d="M62.71,188.75c0-1.95,0-3.91,0-5.86l5.93.19,0,5.51-.18.26.24.21Z" transform="translate(-8.13 -11.95)"/><path class="cls-4" d="M148.28,23.48l6,.5v5.58l.16.26-.18.25-6-.42.07.07c0-1.94,0-3.87,0-5.8l-.19-.22Z" transform="translate(-8.13 -11.95)"/><path class="cls-1" d="M190.9,127.14l-5.8,0h0l-.09-6.06.16.13,5.72,0Z" transform="translate(-8.13 -11.95)"/><path class="cls-2" d="M136.35,182.94v5.81l-5.95.31.22-.22-.15-.26,0-5.55Z" transform="translate(-8.13 -11.95)"/><path class="cls-5" d="M142.18,188.83c.06-1.93.11-3.86.17-5.79l6-.28-.18.2.16.22v5.65Z" transform="translate(-8.13 -11.95)"/><path class="cls-4" d="M74.61,188.91c0,1.93.07,3.86.11,5.78H68.66v-5.63l-.24-.21.18-.26,6.05.36Z" transform="translate(-8.13 -11.95)"/><path class="cls-1" d="M123.4,188.89l-.06,5.8h-5.9c0-1.89,0-3.78,0-5.67l0-.17,6,.05Z" transform="translate(-8.13 -11.95)"/><path class="cls-6" d="M68.63,183.08l-5.93-.19v-6.83h-6l-6-.11.05,0v-5.51l-5.47-.87-1-4.95-5.17-1.13-.8-5-5-.81-.91-5.62H25.87l0,0c0-2-.07-4-.11-5.95v-5.72L20,140.15l-.18-5.93,0-6.93v-5.81l-5.73-.34-.26.14V85.5l.12-7,0,0,5.81-.27v-5.8c.06-2,.11-3.94.17-5.91h5.85V60.44l.18-5.92-.08.08,6.9-.39V48.58l5.57-.28.81-5.23,5.34-1c.1-1.75.21-3.65.32-5.55h6V29.65l-.07.07,5.93-.13h5.74c.11-2.2.21-4.05.32-5.9l5.9-.16h6.08V17.72l0,0,7-.13,35.74.13-.09.14c.12,1.76.25,3.51.4,5.74h5.74l6.94-.05,5.92.17v5.85h6l6,.11-.07-.07v7h6V42.1l5.46.89c.3,1.58.59,3.14,1,5.3l5.52.3v6h6l-.07-.07c0,2,.07,4,.1,5.95v5.73l6.84.3.18,5.92c0,2,0,4-.05,5.95v6.81l5.74.33.15-.09.06,35.84-.16-.13-5.73.41v5.72c-.08,2.27-.15,4.55-.23,6.83l-6.62.35c-.11,2.16-.19,3.92-.28,5.67h0l-5.42.29-1,5.23-5,1c-.33,1.72-.63,3.28-1,5l-5,1c-.33,1.72-.64,3.28-1,5l-5,1c-.34,1.72-.64,3.29-1,5l-5,1-.94,4.88-5.54,1.4V176H123.4v7l0,0-6,0-42.91,0ZM105.44,48.71h-5.8V60.43h11.72V48.71ZM93.59,169.88h5.83V158.05l-5.69.43c-.1,2.11-.18,3.74-.26,5.37L88,164.3v5.58Zm29.82-48.63v-5.63H117.8v5.61h5.63l.35,6,6.55-.29c-.1-2.06-.18-3.59-.28-5.65ZM81.6,78.39V85h5.58V78.74l-5.63-.31V72.88H74.71L75,78.39Zm72.61,48.81v-6l-5.54.38v5.56h5.59v6.61h5.58V127.5Zm-12-29.89v-5.5H130.72V103.2H142.2ZM68.55,140.2v-5.89H57.15v11.48h11.4ZM50.81,78.58h-5.9V91H56.4V78.58ZM123.53,152h6.52V140.48H117.58V152ZM26.2,120.72H38.32v-10.9H26.2ZM142.74,60.77V72.15H154V67.07l-5.24-1.13c-.35-1.88-.65-3.45-1-5.17ZM99.09,103.08l.89-5.34,5.18-.81V91.87H94v11.21ZM63.15,48.91V60.52l5.07-.33.94-5.25,5.13-.81V48.91Zm-6.06,60.65v11.33h5.16V109.56Z" transform="translate(-8.13 -11.95)"/><path class="cls-7" d="M136.33,176V170.8l5.54-1.4.94-4.88,5-1c.33-1.71.63-3.28,1-5l5-1c.33-1.72.64-3.28,1-5l5-1c.34-1.72.64-3.28,1-5l5-1,1-5.23,5.42-.29.06,6,0,6,.07,0h-5.49c-.4,2.12-.69,3.7-1,5.48l-5,1-1,5-4.84.92-1.13,4.85-5.47,1.34V176l0-.06-6,0Z" transform="translate(-8.13 -11.95)"/><path class="cls-7" d="M74.57,183l42.91,0c0,1.94,0,3.89-.07,5.84l0,.17H81.68l-7.07-.12,0,0C74.62,187,74.6,185,74.57,183Z" transform="translate(-8.13 -11.95)"/><path class="cls-2" d="M50.79,29.65v6.91h-6V30.07Z" transform="translate(-8.13 -11.95)"/><path class="cls-2" d="M32.73,48.58v5.63l-6.9.39q.23-3,.43-6Z" transform="translate(-8.13 -11.95)"/><path class="cls-2" d="M154.28,36.61h-6v-7l6,.42Z" transform="translate(-8.13 -11.95)"/><path class="cls-2" d="M172.23,54.6h-6v-6h5.53C171.94,50.59,172.08,52.59,172.23,54.6Z" transform="translate(-8.13 -11.95)"/><path class="cls-7" d="M172.16,140.12c.09-1.75.17-3.51.28-5.67l6.62-.35c0,2,0,4,0,6.05Z" transform="translate(-8.13 -11.95)"/><path class="cls-2" d="M172.19,152.16l0-6,7,0c-.09,2-.19,4-.28,6Z" transform="translate(-8.13 -11.95)"/><path class="cls-2" d="M172.26,60.48c0-2-.06-4-.1-5.95l6.8,0,.28,5.94Z" transform="translate(-8.13 -11.95)"/><path class="cls-3" d="M179.29,127.27v-5.72l5.73-.41.09,6.06Z" transform="translate(-8.13 -11.95)"/><path class="cls-7" d="M123.4,182.93v-7h12.93q0,3.5,0,7l-5.91.09Z" transform="translate(-8.13 -11.95)"/><path class="cls-2" d="M142.36,176l6,0-.06,6.78-6,.28C142.36,180.69,142.36,178.35,142.36,176Z" transform="translate(-8.13 -11.95)"/><path class="cls-2" d="M50.72,176l6,.11c0,2.33,0,4.65,0,7l-6-.28Q50.73,179.36,50.72,176Z" transform="translate(-8.13 -11.95)"/><path class="cls-2" d="M56.65,29.59l-5.93.13c0-1.94,0-3.87,0-5.8l6-.29Z" transform="translate(-8.13 -11.95)"/><path class="cls-2" d="M25.79,146.18c0,2,.07,4,.11,5.95l-5.81,0c-.09-2-.19-4-.28-5.94Z" transform="translate(-8.13 -11.95)"/><path class="cls-2" d="M25.91,54.52l-.18,5.92-5.92.07c.1-2,.19-4,.29-5.94Z" transform="translate(-8.13 -11.95)"/><path class="cls-2" d="M148.34,29.72l-6-.11c0-2,0-4,0-6l6,.29C148.31,25.85,148.33,27.78,148.34,29.72Z" transform="translate(-8.13 -11.95)"/><path class="cls-1" d="M130.43,23.59l-6.94.05c0-1.95,0-3.9,0-5.84l0,0,7,.31Z" transform="translate(-8.13 -11.95)"/><path class="cls-1" d="M123.4,182.93l7,.1,0,5.55-7.07.32h0c0-2,0-4,0-5.92Z" transform="translate(-8.13 -11.95)"/><path class="cls-7" d="M185,85.52l-5.74-.33V78.38l5.92.08v-.07Q185.06,81.95,185,85.52Z" transform="translate(-8.13 -11.95)"/><path class="cls-1" d="M19.81,127.29l0,6.93-5.53,0q-.13-3.54-.29-7.08l0,0Z" transform="translate(-8.13 -11.95)"/><path class="cls-1" d="M74.69,17.72v5.81H68.61c0-1.82,0-3.64,0-5.45Z" transform="translate(-8.13 -11.95)"/><path class="cls-7" d="M123.44,17.8c0,1.94,0,3.89,0,5.84h-5.74c-.15-2.23-.28-4-.4-5.74Z" transform="translate(-8.13 -11.95)"/><path class="cls-1" d="M185.15,78.46l-5.92-.08c0-2,0-4,.05-5.95l5.52,0Q185,75.43,185.15,78.46Z" transform="translate(-8.13 -11.95)"/><path class="cls-1" d="M19.71,72.42v5.8l-5.81.27.36-6.08Z" transform="translate(-8.13 -11.95)"/><path class="cls-7" d="M19.81,127.29l-5.87-.08c0-2,.09-4,.14-6.07l5.73.34Z" transform="translate(-8.13 -11.95)"/><path class="cls-1" d="M74.57,183c0,2,.05,3.95.08,5.92l-6.05-.36,0-5.51Z" transform="translate(-8.13 -11.95)"/><path class="cls-3" d="M123.44,183c0,2,0,4,0,5.92l-6-.05c0-1.95,0-3.9.07-5.84Z" transform="translate(-8.13 -11.95)"/><path class="cls-7" d="M26.2,120.72v-10.9H38.32v10.9Z" transform="translate(-8.13 -11.95)"/><path class="cls-1" d="M117.58,146v-5.53h12.47V152h-6.52c-.11-1.75-.22-3.49-.36-5.59Z" transform="translate(-8.13 -11.95)"/><path class="cls-1" d="M50.81,78.58H56.4V91H44.91v-5.5l5.61-.34Z" transform="translate(-8.13 -11.95)"/><path class="cls-1" d="M142.74,60.77h5c.32,1.72.62,3.29,1,5.17L154,67.07v5.08H142.74Z" transform="translate(-8.13 -11.95)"/><path class="cls-1" d="M68.55,140.2v5.59H57.15V134.31h5.5c.1,1.73.21,3.46.33,5.56Z" transform="translate(-8.13 -11.95)"/><path class="cls-1" d="M99.09,103.08H94V91.87h11.17v5.06l-5.18.81Z" transform="translate(-8.13 -11.95)"/><path class="cls-1" d="M136.31,103.2h-5.59V91.81H142.2v5.5l-5.56.33C136.51,99.73,136.41,101.47,136.31,103.2Z" transform="translate(-8.13 -11.95)"/><path class="cls-1" d="M63.15,48.91H74.29v5.22l-5.13.81-.94,5.25-5.07.33Z" transform="translate(-8.13 -11.95)"/><path class="cls-1" d="M57.09,109.56h5.16v11.33H57.09Z" transform="translate(-8.13 -11.95)"/><path class="cls-7" d="M154.21,127.2l5.63.3v6.26h-5.58v-6.61Z" transform="translate(-8.13 -11.95)"/><path class="cls-1" d="M81.6,78.39H75l-.24-5.51h6.84v5.55Z" transform="translate(-8.13 -11.95)"/><path class="cls-3" d="M50.81,78.58l-.29,6.55-5.61.34V78.58Z" transform="translate(-8.13 -11.95)"/><path class="cls-7" d="M81.55,78.43l5.63.31V85H81.6V78.39Z" transform="translate(-8.13 -11.95)"/><path class="cls-7" d="M123.41,121.25h6.64c.1,2.06.18,3.59.28,5.65l-6.55.29-.35-6Z" transform="translate(-8.13 -11.95)"/><path class="cls-3" d="M68.55,140.2,63,139.87c-.12-2.1-.23-3.83-.33-5.56h5.9Z" transform="translate(-8.13 -11.95)"/><path class="cls-7" d="M123.43,121.23H117.8v-5.61h5.61v5.63Z" transform="translate(-8.13 -11.95)"/><path class="cls-3" d="M111.36,54.63v5.8h-5.8l0-5.83Z" transform="translate(-8.13 -11.95)"/><path class="cls-7" d="M105.54,54.6c0,1.94,0,3.89,0,5.83H99.64V54.51l5.83,0Z" transform="translate(-8.13 -11.95)"/><path class="cls-7" d="M117.58,146l5.59.36c.14,2.1.25,3.84.36,5.59h-6Z" transform="translate(-8.13 -11.95)"/><path class="cls-7" d="M93.47,163.85l.26-5.37,5.69-.43v6.08l-5.84,0Z" transform="translate(-8.13 -11.95)"/><path class="cls-3" d="M93.59,169.88H88V164.3l5.47-.45.11.3C93.58,166.06,93.59,168,93.59,169.88Z" transform="translate(-8.13 -11.95)"/><path class="cls-1" d="M93.59,169.88c0-1.91,0-3.82,0-5.73l5.84,0v5.75Z" transform="translate(-8.13 -11.95)"/><path class="cls-1" d="M154.26,127.15h-5.59v-5.56l5.54-.38v6Z" transform="translate(-8.13 -11.95)"/><path class="cls-7" d="M111.36,54.63l-5.83,0-.06-.07,0-5.82h5.92Z" transform="translate(-8.13 -11.95)"/><path class="cls-3" d="M105.44,48.71l0,5.82-5.83,0v-5.8Z" transform="translate(-8.13 -11.95)"/><path class="cls-3" d="M136.31,103.2c.1-1.73.2-3.47.33-5.56l5.56-.33v5.89Z" transform="translate(-8.13 -11.95)"/></svg>