<svg id="Layer_1" data-name="Layer 1" xmlns="http://www.w3.org/2000/svg" viewBox="0 0 182.73 183.66"><defs><style>.cls-1{fill:#1d140f;}.cls-2{fill:#4b3b30;}.cls-3{fill:#5b4a3c;}.cls-4{fill:#744f27;}.cls-5{fill:#9a6734;}.cls-6{fill:#a8713b;}.cls-7{fill:#906131;}.cls-8{fill:#3a2717;}.cls-9{fill:#4e2d12;}.cls-10{fill:#5c3e1e;}</style></defs><path class="cls-1" d="M115.08,193.83H79.31c0-1.92,0-3.83,0-5.75l35.76,0Z" transform="translate(-5.83 -10.18)"/><path class="cls-1" d="M79.31,10.18h35.77l.06,5.71-6,.25-17.92,0-12-.3Z" transform="translate(-5.83 -10.18)"/><path class="cls-1" d="M188.55,84V120l-5.75,0q-.1-3-.19-6V90l.24-6Z" transform="translate(-5.83 -10.18)"/><path class="cls-1" d="M5.83,120V84L11.5,84q.15,6,.29,12L11.57,120Z" transform="translate(-5.83 -10.18)"/><path class="cls-2" d="M79.31,10.18l-.06,5.69.14.34L72.28,16l.11-5.85Z" transform="translate(-5.83 -10.18)"/><path class="cls-2" d="M79.35,188.08c0,1.92,0,3.83,0,5.75H72.38c0-1.94-.09-3.88-.13-5.82Z" transform="translate(-5.83 -10.18)"/><path class="cls-2" d="M11.5,84,5.83,84v-7l5.83-.1.18,7.14Z" transform="translate(-5.83 -10.18)"/><path class="cls-2" d="M23.41,47l.21-5.84,6.85-.22.12,6.19V47l-6.7,0A.3.3,0,0,0,23.41,47Z" transform="translate(-5.83 -10.18)"/><path class="cls-2" d="M188.55,84,182.86,84l-.2.09.11-7.11,5.78.11Z" transform="translate(-5.83 -10.18)"/><path class="cls-2" d="M36.45,34.91l.17-6.86,5.81-.21a.3.3,0,0,0,0,.49c0,2.25,0,4.49,0,6.74l.07,0-6,.23Z" transform="translate(-5.83 -10.18)"/><path class="cls-2" d="M152,27.84l5.81.21.21,6.89-6.15.11h.07c0-2.24,0-4.48,0-6.72A.31.31,0,0,0,152,27.84Z" transform="translate(-5.83 -10.18)"/><path class="cls-2" d="M23.61,162.89l-.21-5.84.26.1.23-.15,6.69,0v-.06l-.11,6.18Z" transform="translate(-5.83 -10.18)"/><path class="cls-2" d="M121,10.18c0,2,0,3.89,0,5.84h0l-6.06.08.11-.22-.06-5.71Z" transform="translate(-5.83 -10.18)"/><path class="cls-3" d="M54.39,21.9l.15-5.83,5.89-.28.11.23-.2.16c0,1.95,0,3.9,0,5.85l.1,0-6.15.21Z" transform="translate(-5.83 -10.18)"/><path class="cls-3" d="M134,15.79l5.9.28.27,5.85-6.19.14.08,0,0-5.84-.2-.16Z" transform="translate(-5.83 -10.18)"/><path class="cls-2" d="M164,41l5.83.17L170,47l-.26-.09-.24.13-5.68,0v.06q-.12-3-.23-6Z" transform="translate(-5.83 -10.18)"/><path class="cls-3" d="M11.7,59.13,17.49,59l.39-.07-.21,6.18,0-.1L11.8,65l-.15.22-.23-.13Z" transform="translate(-5.83 -10.18)"/><path class="cls-3" d="M11.7,144.88,11.41,139l.23-.13.16.22,5.83,0,0-.08-.15,6.23Z" transform="translate(-5.83 -10.18)"/><path class="cls-3" d="M183,139l-.28,5.93-5.79.14-.39.06.3-6.11,5.78.07Z" transform="translate(-5.83 -10.18)"/><path class="cls-2" d="M188.56,125.94l-5.81.06h-.07l0-6.07.11.09,5.75,0Z" transform="translate(-5.83 -10.18)"/><path class="cls-2" d="M170,157l-.21,5.85-5.85.22q0-3.06-.07-6.12h5.63A.33.33,0,0,0,170,157Z" transform="translate(-5.83 -10.18)"/><path class="cls-2" d="M36.61,175l-.16-5.86.09-.22,6,0-.08,0v5.73a.34.34,0,0,0,0,.51Z" transform="translate(-5.83 -10.18)"/><path class="cls-2" d="M157.78,175l-5.82.21a.32.32,0,0,0-.05-.49c0-1.89,0-3.77,0-5.66l5.95-.13.09.21Z" transform="translate(-5.83 -10.18)"/><path class="cls-2" d="M11.64,126l-5.81,0v-6l5.74.06.21-.13L11.66,126Z" transform="translate(-5.83 -10.18)"/><path class="cls-3" d="M54.53,187.93l-.14-5.82-.06-.39,6.13.22-.08,0,0,5.86.22.16-.12.23Z" transform="translate(-5.83 -10.18)"/><path class="cls-3" d="M139.86,187.93l-5.91.29-.12-.23.21-.16c0-1.93,0-3.87-.08-5.8l6.09-.31-.05.39C140,184.05,139.9,186,139.86,187.93Z" transform="translate(-5.83 -10.18)"/><path class="cls-3" d="M176.89,59l5.8.15c.09,2,.18,3.95.28,5.92l-.23.11-.16-.2-5.82,0,0,.08c-.08-2.06-.15-4.11-.23-6.16Z" transform="translate(-5.83 -10.18)"/><path class="cls-2" d="M121.07,188c0,1.95,0,3.89,0,5.84h-5.94l0-5.78,0-.09,6,0Z" transform="translate(-5.83 -10.18)"/><path class="cls-4" d="M79.35,188.08l-7.1-.06h.07l-.06-5.95h42.89c0,2-.05,3.92-.08,5.88l0,.09Z" transform="translate(-5.83 -10.18)"/><path class="cls-5" d="M115.15,182.09H72.26l-6,0L60.38,182l.08,0c-.12-2.18-.24-4.36-.38-6.83H54.33l.11-.16c-.13-1.84-.25-3.69-.4-5.9h-5.7l-5.85-.1.08,0c-.11-1.78-.22-3.57-.35-5.7l-5.66-.28,0,.05-.27-5.66-5.67-.41V157l-.09-5.88c-.08-1.86-.17-3.72-.28-6.13H23.62l-.15.1v-5.84l-5.81-.31,0,.08-.15-6,0-7v-5.83l-5.74-.34-.21.13q.11-12,.22-24.06l5.28-.25,1.06-5.22,5.6-1.21V71.52l6.26-1,1.16-5,5.44-1.31V53.74l5.46-1.43L43,47.5l5-1L49,41.26l10.81-.53L61,35.27l10.86-.57c.41-2.41.73-4.31,1.08-6.43l11.76-.58,1.21-5.17,5.33-1.23V16.16l17.92,0c.09,1.75.18,3.51.31,5.84h5.7l6,0,7-.06L134,22l-.08,0c.12,1.85.24,3.71.38,5.84H140l-.09.16c.12,2.17.24,4.34.39,6.9H146l5.86.09h-.07l.42,6h5.61c.09,1.79.17,3.58.27,5.67l5.68.39V47l.09,5.89c.08,1.85.16,3.7.26,6.12h5.6l.17-.1v6.15h6.8l0-.08q.08,3,.14,6c0,2,0,4-.05,6l0,7c.11,1.89.21,3.78.35,6h5.46v24l-5.77.33v5.79l.09,5.94q-.06,3.49-.1,7l-.13-.09-6.65.29c-.1,2.2-.18,4-.25,5.76h0l-5.46.26c-.35,2-.64,3.55-.95,5.29l-5.05.94-.93,5.06-5,.94-.93,5.06-5,.94-.93,5.06-5,.94c-.32,1.74-.61,3.32-.9,4.94L134,169.77V175H121.05v7l0,.08ZM91.26,168.86H97.1V157H91.25l-6,.32v5.73l.27,5.79Zm12-110h5.88V53c-.09-1.86-.19-3.71-.3-6H97.32V58.87ZM151.87,126v-6l-5.57.39V126h5.59c.13,2.21.25,4.42.39,7l5.21-.36V126Zm-30.81-6-.33-6-5.56.39.25,5.61h5.66l.32,5.6H128c-.09-2-.16-3.51-.26-5.58ZM79.27,77l.38,7,5.21-.36V77H79.24V71.4H72.68V77ZM60.34,133.15H54.82v11.52H66.21V133.15ZM134,101.85h5.87V90.41H128.36v11.44ZM42.62,84v5.55H54.09V77.15H42.62ZM121.13,151h6.5V139.32h-12.5v5.62c.09,1.86.19,3.73.3,6Zm-84.9-42.55H24v11.15H36.23Zm55.35-18.2v11.44h5.21c.28-1.87.52-3.46.78-5.12l5.6-1.21-.39-5.11Zm48.73-31V70.69h11.15V65.43l-5.12-1-.89-5.22Zm-79.52-12V59l5.15-.28.84-5.3,5.43-.83c-.08-1.91-.16-3.59-.24-5.28Zm-5.93,61.06V120l5.17-.37v-11.3Z" transform="translate(-5.83 -10.18)"/><path class="cls-6" d="M91.2,16.16v5.13l-5.33,1.23-1.21,5.17-11.76.58c-.35,2.12-.67,4-1.08,6.43L61,35.27l-1.14,5.46L49,41.26l-1.07,5.25-5,1-.9,4.81-5.46,1.43V64.22l-5.44,1.31-1.16,5-6.26,1V89.29l-5.6,1.21-1.06,5.22L11.79,96q-.15-6-.29-12l.34.14,5.7-.45V76.91c0-2-.05-4-.08-6l.18-6,0,.1,5.77-.4V58.93l.17-6-.06.06H30.6V47.09l5.94-.45V41h0l5.69-.28.35-5.7-.07,0,5.84-.13h6.11V28.06l-.1-.15h5.79l.34-5.84-.1,0,5.93-.17,5.93.08H79l.36-5.73-.14-.34Z" transform="translate(-5.83 -10.18)"/><path class="cls-7" d="M115.13,22h-5.7c-.13-2.33-.22-4.09-.31-5.84l6-.25-.1.22Z" transform="translate(-5.83 -10.18)"/><path class="cls-7" d="M182.62,90h-5.46c-.14-2.27-.24-4.16-.35-6l5.85.09.2-.09Z" transform="translate(-5.83 -10.18)"/><path class="cls-7" d="M176.85,120.1v-5.79l5.77-.33q.09,3,.19,6l-.11-.09Z" transform="translate(-5.83 -10.18)"/><path class="cls-1" d="M54.39,182.11l-6-.3,0-6.83,0,.06,6-.09-.11.16v6.61Z" transform="translate(-5.83 -10.18)"/><path class="cls-8" d="M42.49,169l5.85.1.09,6,0-.06-6-.3C42.48,172.77,42.49,170.86,42.49,169Z" transform="translate(-5.83 -10.18)"/><path class="cls-7" d="M79.39,16.21,79,21.94H72.24c0-2,.07-4,.11-6l-.07,0Z" transform="translate(-5.83 -10.18)"/><path class="cls-9" d="M128.08,21.88l-7,.06c0-2,0-3.94,0-5.91h0l7.08-.14L128,16C128.05,18,128.06,19.93,128.08,21.88Z" transform="translate(-5.83 -10.18)"/><path class="cls-1" d="M146,181.81l-5.95.3.05-.39c0-2.22,0-4.45,0-6.67l5.91,0,0,0Z" transform="translate(-5.83 -10.18)"/><path class="cls-8" d="M151.9,169c0,1.89,0,3.77,0,5.66l-6,.32,0,0,.27-5.83,5.69-.26Z" transform="translate(-5.83 -10.18)"/><path class="cls-9" d="M128.15,188.13l-7.08-.13v-.07l0-5.88,0-.08,7,.12L128,188Z" transform="translate(-5.83 -10.18)"/><path class="cls-7" d="M17.54,76.91v6.74l-5.7.45L11.66,77l0,.07Z" transform="translate(-5.83 -10.18)"/><path class="cls-8" d="M30.6,47v6h-7q.18-3,.35-6Z" transform="translate(-5.83 -10.18)"/><path class="cls-9" d="M36.53,41v5.61l-5.94.45-.12-6.19V41Z" transform="translate(-5.83 -10.18)"/><path class="cls-4" d="M182.66,84.06,176.81,84c0-2.34,0-4.68,0-7l5.92.07V77Q182.71,80.51,182.66,84.06Z" transform="translate(-5.83 -10.18)"/><path class="cls-8" d="M36.53,41,30.46,41q.09-2.93.16-5.87l5.83-.18.13.37c0,1.92,0,3.83,0,5.75Z" transform="translate(-5.83 -10.18)"/><path class="cls-8" d="M48.34,34.94l-5.84.13c0-2.25,0-4.49,0-6.74l6-.31,0-.06Z" transform="translate(-5.83 -10.18)"/><path class="cls-9" d="M36.53,41c0-1.92,0-3.83,0-5.75l6-.23c-.11,1.74-.22,3.47-.35,5.7Z" transform="translate(-5.83 -10.18)"/><path class="cls-8" d="M151.9,35.05,146,35q0-3.49-.08-7l-.05.06,6,.31C151.91,30.57,151.9,32.81,151.9,35.05Z" transform="translate(-5.83 -10.18)"/><path class="cls-9" d="M157.86,41h-5.61l-.42-6,6.15-.11h-.06Z" transform="translate(-5.83 -10.18)"/><path class="cls-8" d="M157.86,41l.06-6.09,5.85.16L164,41l-.37.12-5.72,0Z" transform="translate(-5.83 -10.18)"/><path class="cls-9" d="M17.52,126.07c0,2.32,0,4.65,0,7l-5.85,0-.13.12c.05-2.38.1-4.75.14-7.13l0,0Z" transform="translate(-5.83 -10.18)"/><path class="cls-9" d="M176.84,133q0-3.5.1-7l5.74,0h.07l.12,7.11-.11-.11Z" transform="translate(-5.83 -10.18)"/><path class="cls-1" d="M176.9,145l-.3,6h-6.74c0-2,0-4,0-5.93l6.64,0Z" transform="translate(-5.83 -10.18)"/><path class="cls-9" d="M169.49,157h-5.68c.12-1.85.23-3.7.38-6h5.64C169.72,153,169.6,155,169.49,157Z" transform="translate(-5.83 -10.18)"/><path class="cls-8" d="M30.49,151.1l.09,5.88-6.69,0-.3-6-.06,0Z" transform="translate(-5.83 -10.18)"/><path class="cls-9" d="M30.58,156.92l5.67.41c.1,2.08.18,3.87.27,5.66l-6.06,0v.06Q30.52,160,30.58,156.92Z" transform="translate(-5.83 -10.18)"/><path class="cls-1" d="M176.59,53l.3,6-.38-.06h-6.58l-.17.1c0-2,.07-4,.1-6l-.06,0Z" transform="translate(-5.83 -10.18)"/><path class="cls-8" d="M163.9,52.91,163.81,47l5.68,0q.16,3,.31,6l.06,0Z" transform="translate(-5.83 -10.18)"/><path class="cls-8" d="M30.46,163l6.06,0,0-.05c0,2,0,4,0,5.94l-.09.22-5.83-.19Z" transform="translate(-5.83 -10.18)"/><path class="cls-1" d="M66.31,21.86,60.38,22c0-2,0-3.9,0-5.85l6-.3-.21.21.16.24C66.3,18.18,66.31,20,66.31,21.86Z" transform="translate(-5.83 -10.18)"/><path class="cls-9" d="M66.31,21.86c0-1.84,0-3.68,0-5.53L72.35,16c0,2-.07,4-.11,6Z" transform="translate(-5.83 -10.18)"/><path class="cls-4" d="M121.09,16c0,2,0,3.94,0,5.91l-6,0L115,16.11Z" transform="translate(-5.83 -10.18)"/><path class="cls-1" d="M128.08,21.88c0-1.95,0-3.91-.05-5.87l6,.17L134,22Z" transform="translate(-5.83 -10.18)"/><path class="cls-1" d="M48.48,28c0-1.94,0-3.88,0-5.82l6-.3-.06.38c0,1.88,0,3.76,0,5.63l.1.15-6-.1Z" transform="translate(-5.83 -10.18)"/><path class="cls-10" d="M54.35,27.91c0-1.87,0-3.75,0-5.63l6.15-.21c-.1,1.74-.2,3.48-.34,5.84Z" transform="translate(-5.83 -10.18)"/><path class="cls-10" d="M140,27.9h-5.73c-.14-2.13-.26-4-.38-5.84l6.19-.14-.12,0C140,23.93,140,25.92,140,27.9Z" transform="translate(-5.83 -10.18)"/><path class="cls-1" d="M140,27.9c0-2,0-4,0-6l5.94.26,0,5.82L146,28l-6,.1Z" transform="translate(-5.83 -10.18)"/><path class="cls-9" d="M157.86,41l5.72,0q.1,3,.23,6l-5.68-.39C158,44.6,158,42.81,157.86,41Z" transform="translate(-5.83 -10.18)"/><path class="cls-1" d="M23.61,53c-.06,2-.11,4-.17,6H17.88l-.39.07c.1-2,.21-4,.31-6Z" transform="translate(-5.83 -10.18)"/><path class="cls-10" d="M17.88,58.92h5.56V64.7l-5.77.4Z" transform="translate(-5.83 -10.18)"/><path class="cls-1" d="M17.64,65l-.18,6-5.5,0-.25-.16L11.5,71l.3-6Z" transform="translate(-5.83 -10.18)"/><path class="cls-8" d="M176.84,133l5.92,0-.17,6-5.78-.07,0,0-.08-6.06Z" transform="translate(-5.83 -10.18)"/><path class="cls-10" d="M17.66,138.92l5.81.31v5.84l-5.94,0,0,.12Z" transform="translate(-5.83 -10.18)"/><path class="cls-1" d="M11.63,133l5.85,0,.15,6-5.83,0Z" transform="translate(-5.83 -10.18)"/><path class="cls-9" d="M12,70.94l5.5,0c0,2,.05,4,.08,6L11.62,77C11.73,75,11.85,73,12,70.94Z" transform="translate(-5.83 -10.18)"/><path class="cls-10" d="M176.51,145.08l-6.64,0-.06-6.08h7l0,0Z" transform="translate(-5.83 -10.18)"/><path class="cls-1" d="M17.53,145l5.94,0,.15-.1-.09,6,.06,0-5.8,0Q17.67,148,17.53,145Z" transform="translate(-5.83 -10.18)"/><path class="cls-10" d="M182.68,126l-5.74,0-.09-5.94,5.85-.17C182.69,122,182.69,124,182.68,126Z" transform="translate(-5.83 -10.18)"/><path class="cls-9" d="M182.77,77l-5.92-.07c0-2,0-4,.05-6l5.85,0,.13-.11C182.84,72.93,182.81,75,182.77,77Z" transform="translate(-5.83 -10.18)"/><path class="cls-10" d="M163.86,157q0,3.06.07,6.12l0-.06-6,0-.07-.08c.1-1.77.2-3.54.32-5.7l5.66-.26Z" transform="translate(-5.83 -10.18)"/><path class="cls-8" d="M157.9,163l6,0-.18,5.87-5.83.18-.09-.21C157.87,166.93,157.89,165,157.9,163Z" transform="translate(-5.83 -10.18)"/><path class="cls-10" d="M36.54,168.88c0-2,0-4,0-5.94l5.66.28c.13,2.13.24,3.92.35,5.7Z" transform="translate(-5.83 -10.18)"/><path class="cls-10" d="M157.9,163c0,2,0,3.91-.05,5.87l-5.95.13v-5.74l5.91-.34Z" transform="translate(-5.83 -10.18)"/><path class="cls-4" d="M17.52,126.07l-5.86,0,.12-6.12,5.74.34Z" transform="translate(-5.83 -10.18)"/><path class="cls-1" d="M182.75,71l-5.85,0q-.06-3-.14-6l5.82,0Z" transform="translate(-5.83 -10.18)"/><path class="cls-10" d="M54.33,181.72v-6.61h5.75c.14,2.47.26,4.65.38,6.83Z" transform="translate(-5.83 -10.18)"/><path class="cls-1" d="M60.38,182l5.93.15c0,1.85,0,3.7,0,5.55l-.16.26.22.22-6-.32Z" transform="translate(-5.83 -10.18)"/><path class="cls-10" d="M140,175.05c0,2.22,0,4.45,0,6.67L134,182h0q0-3.53,0-7h0Z" transform="translate(-5.83 -10.18)"/><path class="cls-1" d="M128,188c0-2,0-3.94.05-5.91L134,182h0c0,1.93.05,3.87.07,5.8Z" transform="translate(-5.83 -10.18)"/><path class="cls-9" d="M66.29,187.67c0-1.85,0-3.7,0-5.55l6,0,.06,5.95Z" transform="translate(-5.83 -10.18)"/><path class="cls-10" d="M169.93,58.93h6.58q.11,3.07.22,6.16h-6.8Z" transform="translate(-5.83 -10.18)"/><path class="cls-10" d="M121.1,182.05l0,5.88-6,0c0-2,.05-3.92.08-5.88Z" transform="translate(-5.83 -10.18)"/><path class="cls-4" d="M140,175.05l-6-.06v-5.22l5.55-1.36c.29-1.62.58-3.2.9-4.94l5-.94.93-5.06,5-.94.93-5.06,5-.94.93-5.06,5.05-.94c.31-1.74.6-3.32.95-5.29l5.46-.26.06,6.08c0,2,0,3.95,0,5.93h-5.67c-.15,2.29-.26,4.14-.38,6l-5.66.26c-.12,2.16-.22,3.93-.32,5.7l-5.92.34v5.66l-5.69.26L146,175Z" transform="translate(-5.83 -10.18)"/><path class="cls-4" d="M36.23,108.42v11.15H24V108.42Z" transform="translate(-5.83 -10.18)"/><path class="cls-9" d="M115.13,144.94v-5.62h12.5V151h-6.5c-.13-1.78-.25-3.55-.4-5.63Z" transform="translate(-5.83 -10.18)"/><path class="cls-9" d="M48.48,77.15h5.61V89.59H42.62V84l5.86-.32Z" transform="translate(-5.83 -10.18)"/><path class="cls-9" d="M134,101.85h-5.6V90.41h11.47V96l-5.57.3C134.15,98.38,134.06,100.12,134,101.85Z" transform="translate(-5.83 -10.18)"/><path class="cls-9" d="M66.21,139v5.63H54.82V133.15h5.52c.09,1.74.19,3.48.3,5.6Z" transform="translate(-5.83 -10.18)"/><path class="cls-9" d="M91.58,90.22h11.2l.39,5.11-5.6,1.21c-.26,1.66-.5,3.25-.78,5.12H91.58Z" transform="translate(-5.83 -10.18)"/><path class="cls-9" d="M140.31,59.26h5.14l.89,5.22,5.12,1v5.26H140.31Z" transform="translate(-5.83 -10.18)"/><path class="cls-9" d="M60.79,47.28H72c.08,1.69.16,3.37.24,5.28l-5.43.83-.84,5.3L60.79,59Z" transform="translate(-5.83 -10.18)"/><path class="cls-4" d="M134,182l-5.91.07-7-.12v-7H134Q134,178.5,134,182Z" transform="translate(-5.83 -10.18)"/><path class="cls-9" d="M54.86,108.34H60v11.3l-5.17.37Z" transform="translate(-5.83 -10.18)"/><path class="cls-9" d="M79.27,77H72.68V71.4h6.56V77Z" transform="translate(-5.83 -10.18)"/><path class="cls-10" d="M48.48,77.15v6.57L42.62,84V77.15Z" transform="translate(-5.83 -10.18)"/><path class="cls-7" d="M79.24,77h5.62v6.65L79.65,84c-.14-2.61-.26-4.82-.38-7Z" transform="translate(-5.83 -10.18)"/><path class="cls-4" d="M176.79,139h-7c.07-1.78.15-3.56.25-5.76l6.65-.29Q176.76,136,176.79,139Z" transform="translate(-5.83 -10.18)"/><path class="cls-7" d="M140,28.06l6-.1q0,3.51.08,7h-5.7C140.19,32.4,140.07,30.23,140,28.06Z" transform="translate(-5.83 -10.18)"/><path class="cls-4" d="M121.06,120h6.66c.1,2.07.17,3.61.26,5.58H121.4l-.32-5.6Z" transform="translate(-5.83 -10.18)"/><path class="cls-7" d="M151.87,126h5.62v6.65l-5.21.36c-.14-2.61-.26-4.82-.39-7Z" transform="translate(-5.83 -10.18)"/><path class="cls-7" d="M23.53,151l.09-6h6.59c.11,2.41.2,4.27.28,6.13Z" transform="translate(-5.83 -10.18)"/><path class="cls-10" d="M97.32,52.93V47h5.8c0,2,0,4,.07,6Z" transform="translate(-5.83 -10.18)"/><path class="cls-7" d="M103.19,53c0-2,0-4-.07-6h5.69c.11,2.31.21,4.16.3,6L103.18,53Z" transform="translate(-5.83 -10.18)"/><path class="cls-4" d="M97.32,52.93l5.87,0h0c0,2,0,3.94,0,5.9H97.32Z" transform="translate(-5.83 -10.18)"/><path class="cls-10" d="M103.23,58.87c0-2,0-3.93,0-5.9l5.93.07v5.83Z" transform="translate(-5.83 -10.18)"/><path class="cls-7" d="M163.9,52.91l6,.08c0,2-.06,4-.1,6h-5.6C164.06,56.61,164,54.76,163.9,52.91Z" transform="translate(-5.83 -10.18)"/><path class="cls-10" d="M134,101.85c.1-1.73.19-3.47.3-5.59l5.57-.3v5.89Z" transform="translate(-5.83 -10.18)"/><path class="cls-7" d="M115.13,144.94l5.6.4c.15,2.08.27,3.85.4,5.63h-5.7C115.32,148.67,115.22,146.8,115.13,144.94Z" transform="translate(-5.83 -10.18)"/><path class="cls-9" d="M151.89,126H146.3v-5.62l5.57-.39v6Z" transform="translate(-5.83 -10.18)"/><path class="cls-4" d="M91.25,157H97.1v6.06l-5.86,0,0-.23Z" transform="translate(-5.83 -10.18)"/><path class="cls-4" d="M121.08,120h-5.66l-.25-5.61,5.56-.39c.12,2.26.23,4.14.33,6Z" transform="translate(-5.83 -10.18)"/><path class="cls-10" d="M91.26,168.86h-5.7c-.1-2.11-.18-4-.27-5.79l5.9-.19,0,.23C91.24,165,91.25,166.94,91.26,168.86Z" transform="translate(-5.83 -10.18)"/><path class="cls-9" d="M91.26,168.86c0-1.92,0-3.83,0-5.75l5.86,0v5.78Z" transform="translate(-5.83 -10.18)"/><path class="cls-7" d="M48.43,175l-.09-6H54c.15,2.21.27,4.06.4,5.9Z" transform="translate(-5.83 -10.18)"/><path class="cls-7" d="M91.19,162.88l-5.9.19v-5.73l6-.32Z" transform="translate(-5.83 -10.18)"/><path class="cls-10" d="M66.21,139l-5.57-.3c-.11-2.12-.21-3.86-.3-5.6h5.87Z" transform="translate(-5.83 -10.18)"/><path class="cls-7" d="M48.43,28l6,.1v6.88H48.34Z" transform="translate(-5.83 -10.18)"/></svg>