<svg id="Layer_1" data-name="Layer 1" xmlns="http://www.w3.org/2000/svg" viewBox="0 0 134.68 176.83"><defs><style>.cls-1{fill:#b43534;}.cls-2{fill:#3b8c40;}.cls-3{fill:#43783d;}.cls-4{fill:#326a39;}.cls-5{fill:#2b322c;}.cls-6{fill:#314730;}.cls-7{fill:#c87064;}.cls-8{fill:#f2dfda;}.cls-9{fill:#bb4b45;}.cls-10{fill:#e2b5aa;}.cls-11{fill:#2c5434;}.cls-12{fill:#409b46;}.cls-13{fill:#2b3b2d;}.cls-14{fill:#d79689;}.cls-15{fill:#d96263;}.cls-16{fill:#bb2d32;}.cls-17{fill:#220b0c;}.cls-18{fill:#678141;}.cls-19{fill:#7b703f;}</style></defs><path class="cls-1" d="M105.9,50.82c.08,1.92.15,3.85.23,5.77s0,4-.07,6,.19,3.8.31,6.08H112l.18-.11-.06,5.94v5.86l5.85.26.19-.11V93.26l5.82.32.21-.12v12.07h6.78l.2-.12,0,5.93v6.15h5.77l.21-.11.05,5.92,0,5.93v7.1H143l.19-.11-.06,5.89V148l5.86.25.19-.12-.09,6V160l5.84.26.18-.11c0,2,0,4,0,6s-.07,4-.1,6l-6,.33v5.66l-12-.1c-.08-1.74-.17-3.48-.27-5.71l-5.74.25V178h-7l-.31-5.82H105.93L94,172l-.27-5.61-5.7-.28c-.13-1.83-.25-3.67-.41-5.9H81.93L75,160.07c-.09-1.76-.18-3.52-.3-5.82H68.93l-5.92,0V142.28H57V129.35H51v-17.9H45l.14-6,5.74-.27-.26-5.71H45.13v-6l5.74-.27-.26-5.7H45.13l-.12-7,5.92-.35V62.64c.1-2,.19-4,.29-6H57V50.75l6-.3V44.76l6-.27v-5.7l6-.28V31.83l6.91,0,6-.31V26l5.91-.08.21-.12c0,2,0,3.95,0,5.93v7.14h5.78l.21-.12.06,5.92v5.81ZM75.36,142.54V148h6.3v-5.46Zm6.36-25.39v-5.34H75.31v5.34Zm-12.54-43h5.53V69H69.18Zm25.08,6.41,5.36-.24V74.62l-5.36.24ZM87.85,94H82.31v5.16h5.54Zm24,6h-5.54v5.15h5.54ZM62.62,111.27v-5.8l-5.22.23v5.57Zm6.22-23.7L63,87.82l.33,5.27h5.55ZM69,129.18l-.25-5.85-5.3.33v5.52Zm49.41-5.64v5.8l5.23-.23v-5.57ZM88,136.48l.25,5.86,5.3-.34v-5.52Zm6.15-13.12,5.88-.25-.33-5.27H94.18ZM112.07,148l-.36-5.7-5.74.25.34,5.45Zm19.2.3,5.32-.33v-5.73l-5.32.33ZM94.18,159.77h5.53v-5.16H94.18Zm18.22.59v5.8l5.23-.23v-5.57ZM143,165.92l-.24-5.33H137c.09,2,.16,3.54.24,5.33ZM87.76,50.68,82,51l.25,5.71,5.47-.34Z" transform="translate(-33.16 -14.07)"/><path class="cls-2" d="M137,190.89H124l0-5.65H137Z" transform="translate(-33.16 -14.07)"/><path class="cls-2" d="M38.88,68.63c.1-2,.19-4,.29-5.95h5.89l-.24,11.87-5.63,0-.29.12Z" transform="translate(-33.16 -14.07)"/><path class="cls-3" d="M33.16,99.48v-12h5.69v12Z" transform="translate(-33.16 -14.07)"/><path class="cls-4" d="M33.17,117.42v-12l5.67,0,.24,5.89c0,2-.07,4.07-.1,6.11Z" transform="translate(-33.16 -14.07)"/><path class="cls-4" d="M112,190.89H100L100,185.1l6.2-.12,5.89.26Z" transform="translate(-33.16 -14.07)"/><path class="cls-5" d="M82,184.92H75v-6.74l.08-.1,6.92.18Z" transform="translate(-33.16 -14.07)"/><path class="cls-6" d="M167.84,178.11v6.8H161c0-2.22,0-4.45.05-6.67Z" transform="translate(-33.16 -14.07)"/><path class="cls-7" d="M130.91,105.53h-6.78V99.35l6.82.25C130.94,101.58,130.92,103.55,130.91,105.53Z" transform="translate(-33.16 -14.07)"/><path class="cls-8" d="M131,99.6l-6.82-.25V93.46H131Z" transform="translate(-33.16 -14.07)"/><path class="cls-5" d="M51.17,38.82V32H57c0,2.26,0,4.52,0,6.79Z" transform="translate(-33.16 -14.07)"/><path class="cls-3" d="M56.93,38.77c0-2.27,0-4.53,0-6.79l6-.21.12.08v7l0,0-5.93,0Z" transform="translate(-33.16 -14.07)"/><path class="cls-9" d="M143,136.33h-5.89v-7.1l5.8.19Z" transform="translate(-33.16 -14.07)"/><path class="cls-4" d="M39.18,136.33c-.13-2.35-.25-4.7-.38-7.05l.2,0h6.13L45,136.41Z" transform="translate(-33.16 -14.07)"/><path class="cls-5" d="M75.07,19.69V14.07H82c0,2-.09,3.91-.13,5.87l-6.81-.06Z" transform="translate(-33.16 -14.07)"/><path class="cls-4" d="M38.86,87.53H33.17v-7l5.87,0Z" transform="translate(-33.16 -14.07)"/><path class="cls-10" d="M118.11,87.46V80.52l5.78.37v6.75Z" transform="translate(-33.16 -14.07)"/><path class="cls-7" d="M99.87,38.87H94.09V31.73l5.82.26Z" transform="translate(-33.16 -14.07)"/><path class="cls-11" d="M82,184.92l0-6.66.1-.36,6,.15h0q0,3.44,0,6.85Z" transform="translate(-33.16 -14.07)"/><path class="cls-4" d="M88,184.91q0-3.42,0-6.85l5.93.24q0,3.38.08,6.77l0,.16Z" transform="translate(-33.16 -14.07)"/><path class="cls-12" d="M161.08,178.24c0,2.22,0,4.45-.05,6.67l-6,.25-.19-.06.15-6.84,5.87-.15Z" transform="translate(-33.16 -14.07)"/><path class="cls-13" d="M167.84,178.11l-6.76.13-.19-.13c.08-1.92.17-3.84.25-5.77l.05-.18h6.65Z" transform="translate(-33.16 -14.07)"/><path class="cls-14" d="M106.06,62.6c0-2,0-4,.07-6l5.72.33v5.84Z" transform="translate(-33.16 -14.07)"/><path class="cls-9" d="M106.06,62.6l5.79.16.1,5.92h-5.58C106.25,66.4,106.15,64.5,106.06,62.6Z" transform="translate(-33.16 -14.07)"/><path class="cls-5" d="M38.88,68.63c0,2,0,4,0,6l-5.72,0v-6Z" transform="translate(-33.16 -14.07)"/><path class="cls-10" d="M112.07,74.51l.06-5.94,5.76.31v5.85Z" transform="translate(-33.16 -14.07)"/><path class="cls-11" d="M33.18,74.59l5.72,0,.29-.12q-.06,3.08-.11,6.17l0-.07-5.87,0Z" transform="translate(-33.16 -14.07)"/><path class="cls-9" d="M112.07,74.51l5.82.22,0,5.9-5.85-.26Z" transform="translate(-33.16 -14.07)"/><path class="cls-7" d="M118.11,87.46l5.78.18c0,2,0,4,0,5.94l-5.82-.32Z" transform="translate(-33.16 -14.07)"/><path class="cls-2" d="M38.84,105.44l-5.67,0v-6l5.7,0Z" transform="translate(-33.16 -14.07)"/><path class="cls-8" d="M131.09,111.34l0-5.93,5.8.29v5.9Z" transform="translate(-33.16 -14.07)"/><path class="cls-7" d="M131.09,111.34l5.82.26,0,5.89h-5.77Z" transform="translate(-33.16 -14.07)"/><path class="cls-11" d="M33.17,117.42l5.81,0,.07-.06q.06,3,.11,6.09l-.26-.13-5.73.06Z" transform="translate(-33.16 -14.07)"/><path class="cls-8" d="M137.12,123.3l-.05-5.92,5.84.3v5.84Z" transform="translate(-33.16 -14.07)"/><path class="cls-5" d="M33.17,123.4l5.73-.06c0,2,.07,4,.1,6l-.2,0H33.17Z" transform="translate(-33.16 -14.07)"/><path class="cls-14" d="M137.12,123.3l5.79.22c0,2,0,3.93,0,5.9l-5.8-.19Z" transform="translate(-33.16 -14.07)"/><path class="cls-3" d="M81.86,19.94c0-2,.08-3.91.13-5.87h6c0,1.88,0,3.76-.05,5.64l.07.35L82,20.1Z" transform="translate(-33.16 -14.07)"/><path class="cls-6" d="M88,19.71c0-1.88,0-3.76.05-5.64h5.84v5.82Z" transform="translate(-33.16 -14.07)"/><path class="cls-5" d="M63.18,25.83V20H69c0,1.91-.06,3.82-.08,5.73Z" transform="translate(-33.16 -14.07)"/><path class="cls-4" d="M68.93,25.77C69,23.86,69,22,69,20l6-.35v6.22h0l-6,0Z" transform="translate(-33.16 -14.07)"/><path class="cls-5" d="M39.18,136.33l5.77.08.06-.12v5.94l-.18,0H39.18Z" transform="translate(-33.16 -14.07)"/><path class="cls-10" d="M143.11,142.11l.06-5.89h5.77v6.14Z" transform="translate(-33.16 -14.07)"/><path class="cls-3" d="M45.16,148.28c-.11-2-.23-4-.34-6l.18,0,6,0h.18q-.09,3-.16,6.09Z" transform="translate(-33.16 -14.07)"/><path class="cls-9" d="M143.11,142.11l5.83.25,0,5.92-5.86-.25Z" transform="translate(-33.16 -14.07)"/><path class="cls-13" d="M45.16,148.28l5.84,0,0-.07,0,6-.13,0H45.16Z" transform="translate(-33.16 -14.07)"/><path class="cls-10" d="M149.07,154.12l.09-6h5.72v6.19Z" transform="translate(-33.16 -14.07)"/><path class="cls-11" d="M57,160.27H51.23c-.12-2.2-.23-4.12-.34-6.05l.13,0,6.06,0,0,0q0,3,0,6Z" transform="translate(-33.16 -14.07)"/><path class="cls-9" d="M149.07,154.12l5.81.23,0,5.9-5.84-.26Z" transform="translate(-33.16 -14.07)"/><path class="cls-6" d="M62.93,166.16H57v-5.89l.08-.1,6,0,0-.08v6Z" transform="translate(-33.16 -14.07)"/><path class="cls-7" d="M88,19.71l5.89.18c0,2,0,4,0,6L88,26l0-.26V20.06Z" transform="translate(-33.16 -14.07)"/><path class="cls-4" d="M63.18,25.83l5.75-.06.17.17L69,31.89l0,0h-6l-.12-.08Z" transform="translate(-33.16 -14.07)"/><path class="cls-10" d="M155.1,166.09c0-2,0-4,0-6l5.79.38v5.75Z" transform="translate(-33.16 -14.07)"/><path class="cls-11" d="M69,172.24H63.22c-.11-2.22-.2-4.15-.29-6.08l.1,0h6l0,6Z" transform="translate(-33.16 -14.07)"/><path class="cls-7" d="M155.1,166.09l5.78.18q.17,2.94.31,5.89l-.05.18L155,172.1C155,170.1,155.07,168.09,155.1,166.09Z" transform="translate(-33.16 -14.07)"/><path class="cls-13" d="M75,178.18H69v-5.94l.06-.12,6,.06,0,5.9Z" transform="translate(-33.16 -14.07)"/><path class="cls-8" d="M99.91,32l-5.82-.26c0-2,0-3.95,0-5.93l5.81.28Z" transform="translate(-33.16 -14.07)"/><path class="cls-4" d="M51.17,38.82l5.76,0,.22,0-.09,6,0,0H51l-.15,0Z" transform="translate(-33.16 -14.07)"/><path class="cls-8" d="M100.14,44.67l-.06-5.92,5.85.3v5.82Z" transform="translate(-33.16 -14.07)"/><path class="cls-6" d="M44.91,50.73V44.78h6l.15,0v6l.05-.09-6,.05Z" transform="translate(-33.16 -14.07)"/><path class="cls-14" d="M100.14,44.67l5.79.2,0,6-5.76-.34Z" transform="translate(-33.16 -14.07)"/><path class="cls-5" d="M39.17,56.71v-6h5.74l.11,0,.07,6-.2-.11Z" transform="translate(-33.16 -14.07)"/><path class="cls-13" d="M100,185.1l.06,5.79h-6v-5.66l0-.16h6Z" transform="translate(-33.16 -14.07)"/><path class="cls-2" d="M112,190.89l0-5.65H118l0,5.65Z" transform="translate(-33.16 -14.07)"/><path class="cls-3" d="M118,190.89l0-5.65H124l0,5.65Z" transform="translate(-33.16 -14.07)"/><path class="cls-11" d="M39.17,56.71l5.72-.08L45,62.75l0-.06H39.17Z" transform="translate(-33.16 -14.07)"/><path class="cls-4" d="M137,190.89l0-5.63,6,0v5.66Z" transform="translate(-33.16 -14.07)"/><path class="cls-3" d="M143,190.89v-5.66l6-.2c0,1.95.09,3.9.13,5.86Z" transform="translate(-33.16 -14.07)"/><path class="cls-11" d="M149.09,190.89c0-2-.09-3.91-.13-5.86h0l5.94.07.19.06v5.73Z" transform="translate(-33.16 -14.07)"/><path class="cls-15" d="M149,185l-6,.2-6,0H112l-5.89-.26c-.05-2.29-.1-4.57-.14-6.86v0l18-.11h13l12,.1,0,0-.1,6.91Z" transform="translate(-33.16 -14.07)"/><path class="cls-15" d="M38.84,105.44l0-5.93v-12L39,80.62l0,.07,5.9-.13,0,0,.12,7v17.92l-.14,6h0l-5.91-.12Z" transform="translate(-33.16 -14.07)"/><path class="cls-16" d="M124,178l-18,.11-.09-5.93h17.78Z" transform="translate(-33.16 -14.07)"/><path class="cls-15" d="M44.82,74.56l.24-11.87,0,.06,5.89-.11v17.6L45,80.59l0,0Q44.89,77.56,44.82,74.56Z" transform="translate(-33.16 -14.07)"/><path class="cls-15" d="M45,111.45h6v17.9h0l-5.88,0H45c0-2-.09-3.94-.14-5.91v-6l.14-6Z" transform="translate(-33.16 -14.07)"/><path class="cls-15" d="M105.93,172.17l.09,5.93v0l-6,.15-6,0-5.93-.24h0l-.18-5.86L94,172Z" transform="translate(-33.16 -14.07)"/><path class="cls-15" d="M75,160.07l6.91.16c0,2,0,4,.07,6l-7,.1-5.92-.2h.06c0-1.95-.11-3.9-.16-5.85l.13-.13Z" transform="translate(-33.16 -14.07)"/><path class="cls-15" d="M51,129.35h6v12.93h0l-5.85-.07H51c0-1.94-.08-3.88-.13-5.83l.16-7Z" transform="translate(-33.16 -14.07)"/><path class="cls-15" d="M57,142.28h6v11.95l0,0-5.94-.1,0,0-.21-5.91.14-6Z" transform="translate(-33.16 -14.07)"/><path class="cls-15" d="M155,172.1l6.14.24c-.08,1.93-.17,3.85-.25,5.77l-5.87.15-6-.14,0,0v-5.66Z" transform="translate(-33.16 -14.07)"/><path class="cls-15" d="M75,31.83v6.68l-6,.28,0,0,.1-6.89,0,0L75,31.81Z" transform="translate(-33.16 -14.07)"/><path class="cls-17" d="M75.36,142.54h6.3V148h-6.3Z" transform="translate(-33.16 -14.07)"/><path class="cls-17" d="M81.72,117.15H75.31v-5.34h6.41Z" transform="translate(-33.16 -14.07)"/><path class="cls-15" d="M81.93,31.79l-6.91,0,0,0c0-2,.07-3.93.11-5.89h0L82,25.77Z" transform="translate(-33.16 -14.07)"/><path class="cls-18" d="M50.93,62.64,45,62.75l-.15-6.12.2.11,5.8-.06h.33Z" transform="translate(-33.16 -14.07)"/><path class="cls-17" d="M69.18,74.18V69h5.53v5.15Z" transform="translate(-33.16 -14.07)"/><path class="cls-17" d="M94.26,80.59V74.86l5.36-.24v5.73Z" transform="translate(-33.16 -14.07)"/><path class="cls-16" d="M45.13,93.52v-6h5.48l.26,5.7Z" transform="translate(-33.16 -14.07)"/><path class="cls-17" d="M87.85,94v5.16H82.31V94Z" transform="translate(-33.16 -14.07)"/><path class="cls-16" d="M45.13,105.47v-6h5.48l.26,5.71Z" transform="translate(-33.16 -14.07)"/><path class="cls-17" d="M111.85,99.93v5.15h-5.54V99.93Z" transform="translate(-33.16 -14.07)"/><path class="cls-17" d="M62.62,111.27H57.4V105.7l5.22-.23Z" transform="translate(-33.16 -14.07)"/><path class="cls-17" d="M68.84,87.57v5.52H63.29L63,87.82Z" transform="translate(-33.16 -14.07)"/><path class="cls-17" d="M69,129.18H63.44v-5.52l5.3-.33Z" transform="translate(-33.16 -14.07)"/><path class="cls-17" d="M118.4,123.54h5.23v5.57l-5.23.23Z" transform="translate(-33.16 -14.07)"/><path class="cls-17" d="M88,136.48h5.55V142l-5.3.34Z" transform="translate(-33.16 -14.07)"/><path class="cls-17" d="M94.18,123.36v-5.52h5.55l.33,5.27Z" transform="translate(-33.16 -14.07)"/><path class="cls-17" d="M112.07,148h-5.76l-.34-5.45,5.74-.25Z" transform="translate(-33.16 -14.07)"/><path class="cls-17" d="M131.27,148.31v-5.73l5.32-.33V148Z" transform="translate(-33.16 -14.07)"/><path class="cls-15" d="M63,154.23l5.92,0c0,2,.09,3.93.13,5.9l-.13.13L63,160.12l0,.08c0-2-.06-3.95-.08-5.93Z" transform="translate(-33.16 -14.07)"/><path class="cls-16" d="M69.06,160.15c0-2-.09-3.93-.13-5.9h5.79c.12,2.3.21,4.06.3,5.82Z" transform="translate(-33.16 -14.07)"/><path class="cls-17" d="M94.18,159.77v-5.16h5.53v5.16Z" transform="translate(-33.16 -14.07)"/><path class="cls-17" d="M112.4,160.36h5.23v5.57l-5.23.23Z" transform="translate(-33.16 -14.07)"/><path class="cls-17" d="M143,165.92h-5.76c-.08-1.79-.15-3.37-.24-5.33h5.76Z" transform="translate(-33.16 -14.07)"/><path class="cls-16" d="M94,172l-6.13.17.09,0c0-2,0-4,0-6l.08-.08,5.7.28Z" transform="translate(-33.16 -14.07)"/><path class="cls-16" d="M81.93,31.79l0-6,0,.07,6.1-.1L88,26v5.48Z" transform="translate(-33.16 -14.07)"/><path class="cls-16" d="M137,178h-6v-5.46l5.74-.25C136.85,174.51,136.94,176.25,137,178Z" transform="translate(-33.16 -14.07)"/><path class="cls-16" d="M82,166.22c0-2,0-4-.07-6h5.71c.16,2.23.28,4.07.41,5.9l-.08.08-6,0Z" transform="translate(-33.16 -14.07)"/><path class="cls-15" d="M69,38.79v5.7l-6,.27,0,0,.11-5.89,0,0L69,38.75Z" transform="translate(-33.16 -14.07)"/><path class="cls-15" d="M63,44.76v5.69l-6,.3-.09-.09L57,44.81l0,0,5.91-.1Z" transform="translate(-33.16 -14.07)"/><path class="cls-15" d="M57,50.75v5.93H50.89c.06-2,.11-4,.17-6l-.05.09,5.92-.15Z" transform="translate(-33.16 -14.07)"/><path class="cls-17" d="M87.76,50.68v5.73l-5.47.34L82,51Z" transform="translate(-33.16 -14.07)"/><path class="cls-18" d="M44.82,74.56q.07,3,.16,6l-5.9.13q0-3.09.11-6.17Z" transform="translate(-33.16 -14.07)"/><path class="cls-19" d="M45,111.45q-.08,3-.14,6l-5.8-.06-.07.06c0-2,.07-4.08.1-6.11Z" transform="translate(-33.16 -14.07)"/><path class="cls-19" d="M100,178.27l6-.15c0,2.29.09,4.57.14,6.86l-6.2.12.09,0C100,182.8,100,180.53,100,178.27Z" transform="translate(-33.16 -14.07)"/><path class="cls-4" d="M75.05,178.08c0-2,0-3.93,0-5.9v-.09l7,.35c0,1.82,0,3.64,0,5.46l-.1.36Z" transform="translate(-33.16 -14.07)"/><path class="cls-18" d="M69,38.75l-5.91.11v-7h6C69,34.16,69,36.45,69,38.75Z" transform="translate(-33.16 -14.07)"/><path class="cls-18" d="M63,44.73l-5.91.1.09-6,5.93,0Q63,41.78,63,44.73Z" transform="translate(-33.16 -14.07)"/><path class="cls-19" d="M51,129.35c0,2.34-.11,4.68-.16,7L45,136.29l-.06.12.18-7.11Z" transform="translate(-33.16 -14.07)"/><path class="cls-12" d="M44.86,123.4c0,2,.09,3.94.14,5.91H39c0-2-.07-4-.1-6l.26.13Z" transform="translate(-33.16 -14.07)"/><path class="cls-12" d="M82,25.77l-6.93.14v-6l6.81.06.09.16c0,1.91,0,3.82,0,5.74Z" transform="translate(-33.16 -14.07)"/><path class="cls-2" d="M82.08,177.9c0-1.82,0-3.64,0-5.46l.06-.37,5.89.16-.09,0,.18,5.86Z" transform="translate(-33.16 -14.07)"/><path class="cls-2" d="M100,178.27c0,2.26,0,4.53.07,6.8h-6q0-3.39-.08-6.77Z" transform="translate(-33.16 -14.07)"/><path class="cls-18" d="M149,178.12l6,.14-.15,6.84-5.94-.07C149,182.73,149,180.43,149,178.12Z" transform="translate(-33.16 -14.07)"/><path class="cls-18" d="M44.86,123.4l-5.7.07q0-3-.11-6.09l5.8.06C44.85,119.43,44.86,121.41,44.86,123.4Z" transform="translate(-33.16 -14.07)"/><path class="cls-15" d="M81.93,25.84c0-1.92,0-3.83,0-5.74l6.08,0v5.68Z" transform="translate(-33.16 -14.07)"/><path class="cls-18" d="M75.1,25.92c0,2-.07,3.92-.11,5.89L69,31.89l.06-5.95Z" transform="translate(-33.16 -14.07)"/><path class="cls-12" d="M45,136.29l5.84.08c0,1.95.09,3.89.13,5.83l-6,0C45,140.25,45,138.27,45,136.29Z" transform="translate(-33.16 -14.07)"/><path class="cls-19" d="M57,142.28c0,2-.1,4-.14,6L51,148.23l0,.07q.07-3,.16-6.09Z" transform="translate(-33.16 -14.07)"/><path class="cls-2" d="M51,148.23l5.89.07.21,5.91-6.06,0Z" transform="translate(-33.16 -14.07)"/><path class="cls-3" d="M63,154.27c0,2,.05,3.95.08,5.93l-6,0q0-3,0-6Z" transform="translate(-33.16 -14.07)"/><path class="cls-12" d="M63,160.12l5.91.16c0,1.95.11,3.9.16,5.85H63C63,164.13,63,162.13,63,160.12Z" transform="translate(-33.16 -14.07)"/><path class="cls-3" d="M69,166.12l5.92.2c0,1.93,0,3.85,0,5.77v.09l-6-.06Z" transform="translate(-33.16 -14.07)"/><path class="cls-12" d="M56.93,50.66,51,50.81c0-2,0-4,0-6h6Z" transform="translate(-33.16 -14.07)"/><path class="cls-2" d="M51.06,50.72c-.06,2-.11,4-.17,6l-5.8.06q0-3-.07-6Z" transform="translate(-33.16 -14.07)"/><path class="cls-19" d="M75,172.09c0-1.92,0-3.84,0-5.77l7-.1,0-.05c0,2,.1,3.93.14,5.9l-.06.37Z" transform="translate(-33.16 -14.07)"/><path class="cls-15" d="M82.09,172.07c0-2-.09-3.93-.14-5.9l6,0c0,2,0,4,0,6Z" transform="translate(-33.16 -14.07)"/></svg>