<svg id="Layer_1" data-name="Layer 1" xmlns="http://www.w3.org/2000/svg" viewBox="0 0 134 177.15"><defs><style>.cls-1{fill:#357c3d;}.cls-2{fill:#396d39;}.cls-3{fill:#316538;}.cls-4{fill:#2b322c;}.cls-5{fill:#314730;}.cls-6{fill:#bb4b45;}.cls-7{fill:#2b3b2d;}.cls-8{fill:#2c5434;}.cls-9{fill:#409b46;}.cls-10{fill:#358841;}.cls-11{fill:#43783d;}.cls-12{fill:#c87064;}.cls-13{fill:#c86258;}.cls-14{fill:#3e8f42;}.cls-15{fill:#d96263;}.cls-16{fill:#7b703f;}.cls-17{fill:#b43534;}.cls-18{fill:#618941;}.cls-19{fill:#678141;}.cls-20{fill:#bb2d32;}.cls-21{fill:#220b0c;}</style></defs><path class="cls-1" d="M29,92.7c0-4,0-8,0-12h5.64v12Z" transform="translate(-29.03 -7.27)"/><path class="cls-2" d="M29,110.62V98.68l5.65,0,.24,5.87-.09,6.12Z" transform="translate(-29.03 -7.27)"/><path class="cls-3" d="M107.46,184.09H95.51l0-5.77,6.16-.13,5.85.25Z" transform="translate(-29.03 -7.27)"/><path class="cls-4" d="M77.63,178.12h-7v-6.73l.08-.1,6.9.18Z" transform="translate(-29.03 -7.27)"/><path class="cls-5" d="M163,171.31v6.81h-6.77l0-6.71Z" transform="translate(-29.03 -7.27)"/><path class="cls-2" d="M35,129.53c-.13-2.34-.25-4.69-.37-7h.2l5.71.06.21,7.05Z" transform="translate(-29.03 -7.27)"/><path class="cls-6" d="M138.2,122.63c.11,2.29.21,4.59.31,6.88l-.46,0-5.62-.29v-6.77Z" transform="translate(-29.03 -7.27)"/><path class="cls-4" d="M70.72,12.91V7.27h6.89l-.15,5.88-6.75-.07Z" transform="translate(-29.03 -7.27)"/><path class="cls-7" d="M163,171.31l-6.74.1-.18-.1q.1-2.94.19-5.89l.12,0H163Z" transform="translate(-29.03 -7.27)"/><path class="cls-2" d="M89.6,178.44l-6-.32c0-2.28,0-4.56.08-6.84l5.9.22.05,6.78Z" transform="translate(-29.03 -7.27)"/><path class="cls-3" d="M34.68,80.74H29v-7l5.82.06Z" transform="translate(-29.03 -7.27)"/><path class="cls-8" d="M83.67,171.28c0,2.28,0,4.56-.08,6.84h-6l0-6.65.06-.34,6,.12Z" transform="translate(-29.03 -7.27)"/><path class="cls-4" d="M46.94,32V25.19h5.82c0,2.27,0,4.53-.08,6.8Z" transform="translate(-29.03 -7.27)"/><path class="cls-1" d="M52.68,32c0-2.27,0-4.53.08-6.8L58.65,25l.12.08-.21,6.75L52.94,32Z" transform="translate(-29.03 -7.27)"/><path class="cls-9" d="M156.28,171.41l0,6.71-5.94.25-.15-.08q.08-3.4.13-6.81l5.81-.17Z" transform="translate(-29.03 -7.27)"/><path class="cls-10" d="M34.7,61.85c.1-2,.2-4,.31-6l5.85,0c-.07,2-.13,4-.19,5.92l-5.85.11Z" transform="translate(-29.03 -7.27)"/><path class="cls-6" d="M107.35,56q.15,3,.32,5.89l-.45,0-5.64-.26V55.76Z" transform="translate(-29.03 -7.27)"/><path class="cls-4" d="M29,67.79V61.85H34.7l.12.08c0,2-.09,3.95-.14,5.92Z" transform="translate(-29.03 -7.27)"/><path class="cls-8" d="M29,67.79l5.64.06.33-.09-.1,6.13,0,0L29,73.78Z" transform="translate(-29.03 -7.27)"/><path class="cls-6" d="M107.53,67.71l5.8.23.33,5.87-.46-.07h-5.67Z" transform="translate(-29.03 -7.27)"/><path class="cls-10" d="M34.68,98.65l-5.65,0v-6h5.65Z" transform="translate(-29.03 -7.27)"/><path class="cls-8" d="M29,110.62l5.8,0,.1,0,.12,6.09-.32-.14-5.69,0Z" transform="translate(-29.03 -7.27)"/><path class="cls-4" d="M29,116.6l5.69,0c0,2,.07,4,.11,6H29Z" transform="translate(-29.03 -7.27)"/><path class="cls-11" d="M77.46,13.15l.15-5.88h6l-.06,5.64.08.36-6.05,0Z" transform="translate(-29.03 -7.27)"/><path class="cls-5" d="M83.54,12.91l.06-5.64h5.8v5.82Z" transform="translate(-29.03 -7.27)"/><path class="cls-4" d="M58.88,19V13.25h5.79c0,1.9,0,3.79,0,5.69Z" transform="translate(-29.03 -7.27)"/><path class="cls-3" d="M64.63,18.94c0-1.9,0-3.79,0-5.69l6-.34v.17c0,1.92,0,3.83,0,5.75l-5.94.36Z" transform="translate(-29.03 -7.27)"/><path class="cls-4" d="M35,129.53l5.75.09.05-.12v5.93l-.19,0H35Z" transform="translate(-29.03 -7.27)"/><path class="cls-11" d="M41,141.48c-.12-2-.23-4-.35-6l.19,0,5.72,0c.09,2,.17,4,.25,6Z" transform="translate(-29.03 -7.27)"/><path class="cls-12" d="M83.54,12.91l5.86.18c.13,2,.26,4,.4,6l-.45,0-5.79-.11.06-5.66Z" transform="translate(-29.03 -7.27)"/><path class="cls-7" d="M41,141.48l5.81,0,0-.07,0,6-.12,0H41Z" transform="translate(-29.03 -7.27)"/><path class="cls-8" d="M52.72,153.48H47c-.12-2.2-.22-4.13-.33-6.06l.12,0h5.83q.09,3,.17,6Z" transform="translate(-29.03 -7.27)"/><path class="cls-13" d="M144.41,147.3l5.76.21c.11,2,.21,3.93.32,5.9l-.44,0-5.64-.3Z" transform="translate(-29.03 -7.27)"/><path class="cls-5" d="M58.64,159.36H52.72v-5.88l.07-.11,6,.19c0,1.93,0,3.86,0,5.79Z" transform="translate(-29.03 -7.27)"/><path class="cls-2" d="M58.88,19l5.75-.1.13.25-.21,5.71-5.78.16L58.65,25Q58.77,22,58.88,19Z" transform="translate(-29.03 -7.27)"/><path class="cls-13" d="M150.35,159.26l5.78.23c.09,2,.19,3.93.28,5.89l-.12,0-6.1-.13Q150.28,162.28,150.35,159.26Z" transform="translate(-29.03 -7.27)"/><path class="cls-7" d="M70.62,171.39H64.68v-5.94l.06-.12,5.91,0,0,5.91Z" transform="translate(-29.03 -7.27)"/><path class="cls-3" d="M46.94,32h6q-.24,3-.46,6.06L46.8,38h-.15Z" transform="translate(-29.03 -7.27)"/><path class="cls-5" d="M40.72,43.93V38H46.8c0,2,0,3.91,0,5.87l-6,.1Z" transform="translate(-29.03 -7.27)"/><path class="cls-8" d="M64.68,165.45H58.93c-.1-2.22-.2-4.15-.29-6.09h5.91q.09,3,.19,6Z" transform="translate(-29.03 -7.27)"/><path class="cls-4" d="M35,49.91v-6h5.72l.11,0-.12,6Z" transform="translate(-29.03 -7.27)"/><path class="cls-7" d="M95.48,178.32l0,5.77H89.6v-5.65l0-.16,5.95,0Z" transform="translate(-29.03 -7.27)"/><path class="cls-14" d="M107.46,184.09l0-5.65h6l0,5.65Z" transform="translate(-29.03 -7.27)"/><path class="cls-2" d="M113.49,184.09l0-5.65h6l-.06,5.62.09.34Z" transform="translate(-29.03 -7.27)"/><path class="cls-8" d="M35,49.91l5.71,0,.33-.1L40.84,56l0-.06-5.85,0C35,53.89,35,51.9,35,49.91Z" transform="translate(-29.03 -7.27)"/><path class="cls-1" d="M132.4,184.41h-6.05l.1-.35c0-1.87,0-3.74,0-5.61h6l-.06,5.59Z" transform="translate(-29.03 -7.27)"/><path class="cls-1" d="M144.33,184.09l-6.05.33.1-.35c0-1.87,0-3.75,0-5.62l5.93-.21C144.28,180.19,144.31,182.14,144.33,184.09Z" transform="translate(-29.03 -7.27)"/><path class="cls-8" d="M144.33,184.09c0-2-.05-3.9-.07-5.85h-.06l6,0,.15.08v5.72Z" transform="translate(-29.03 -7.27)"/><path class="cls-15" d="M34.68,98.65V80.74l.18-6.9,0,0,5.87-.13,0,0,.11,7V98.67l-.15,6.06-5.86-.21Z" transform="translate(-29.03 -7.27)"/><path class="cls-16" d="M34.92,104.52l5.86.21,0-.08q-.06,3-.1,6l-5.71-.1-.1,0Z" transform="translate(-29.03 -7.27)"/><path class="cls-15" d="M144.26,178.24l-5.93.21H107.49l-5.85-.25c0-2.29-.09-4.58-.14-6.87h0l17.9-.12h12.94l11.93.11,0,.05c0,2.29-.08,4.59-.13,6.88Z" transform="translate(-29.03 -7.27)"/><path class="cls-16" d="M101.5,171.32c0,2.29.09,4.58.14,6.87l-6.16.13.09-.06-.09-6.79Z" transform="translate(-29.03 -7.27)"/><path class="cls-2" d="M70.7,171.29c0-2,0-3.94,0-5.91v-.08l6.92.26.08,5.57-.06.34Z" transform="translate(-29.03 -7.27)"/><path class="cls-17" d="M126.38,171.2h-7c-.09-1.75-.19-3.51-.31-5.82H101.43l-11.85-.15-.27-5.6-5.68-.28-.4-5.9H77.55l-6.88-.16c-.09-1.76-.18-3.52-.3-5.82H58.64l.07.06v-12h-6l.07.06v-13h-6l.07.07v-18h-6l0,.08.15-6.06,5.71-.27-.25-5.7H40.93v-6l5.71-.27-.25-5.7H40.93l-.11-7,5.85-.35V55.82c0-2-.05-4-.07-6l.31.08,5.82-.34V43.85l-.07.06h6.05v-6l-.06.07,6-.27V31.92l-.06.07,6-.27V25L70.6,25l7,0,6.08-.33V19.19l-.07-.26,5.79.11.32,5.88v6.82l5.66.26.34,5.88v5.79l5.66.28.3,5.87c0,2,0,4,0,5.94v5.79l5.64.26c.1,2,.21,3.94.31,5.9v6h5.67c.12,2.3.23,4.59.35,6.89v5.82l5.61.26.33,5.91v6h6.69q.15,2.94.31,5.88v5.79l5.67.28.33,5.88-.06,6v6.77l5.62.29.33,5.89v5.85l5.83.27.2-.11v11.69l5.64.3.3,5.88q-.07,3-.16,6l-5.9.33v5.69l-11.93-.11c-.08-1.74-.17-3.48-.27-5.72l-5.71.26Zm-48.71-30c-.13-2.17-.23-3.75-.32-5.32H70.63l.33,5.32Zm-7-36.41.24,5.47H77.6l-.24-5.47ZM70.5,61.87l-5.86.25L65,67.39H70.5Zm19,6.2.32,5.3h5.73c-.12-2-.22-3.59-.32-5.3ZM64.74,86.48l-.32-5.3H58.69l.32,5.3Zm13.14,6.23,5.33-.25V86.73L77.88,87Zm23.64.15.26,5.86,5.27-.33V92.86Zm-48.34,6v5.51h5.16V98.84Zm36.64,17.79,5.29-.32v-5.73l-5.29.33Zm-30.85,6,5.69-.36-.25-5.71-5.44.34Zm60.43-.22-.25-5.86-5.27.34v5.52ZM83.76,135.11h5.8l-.23-5.2H83.76Zm18,6.41,5.69-.36-.25-5.72-5.44.34Zm24.64-5.86c.1,2.21.17,3.9.25,5.85l5.27-.33v-5.52ZM95.29,147.43l-5.33.24v5.73l5.33-.24Zm18,6.41h-5.51V159h5.51Zm24.66,5.37v-5.8l-5.2.23v5.57ZM83.35,43.88l-5.7.36c.1,2.08.17,3.77.25,5.72l5.45-.34Z" transform="translate(-29.03 -7.27)"/><path class="cls-16" d="M40.76,129.62l-.21-7.06.34-.12,5.9.18-.07-.07q0,3.51-.1,7l-5.81-.07Z" transform="translate(-29.03 -7.27)"/><path class="cls-9" d="M34.84,122.51c0-2-.07-4-.11-6l.32.14,5.6-.07.24,5.82-.34.12Z" transform="translate(-29.03 -7.27)"/><path class="cls-9" d="M70.7,18.83c0-1.92,0-3.83,0-5.75l6.75.07.11.15c0,1.9,0,3.79,0,5.69l-6.78.12Z" transform="translate(-29.03 -7.27)"/><path class="cls-15" d="M144.29,171.31v-5.69l5.9-.33,6.1.13q-.09,3-.19,5.89l-5.81.17-6-.12Z" transform="translate(-29.03 -7.27)"/><path class="cls-15" d="M89.58,165.22l11.85.15.09,5.94h0l-6,.15-5.91,0-5.9-.22,0,0-.18-5.89Z" transform="translate(-29.03 -7.27)"/><path class="cls-14" d="M89.57,171.5l5.91,0,.09,6.79-5.95,0Z" transform="translate(-29.03 -7.27)"/><path class="cls-18" d="M83.53,165.36l.18,5.89-6-.12c0-1.86,0-3.72-.08-5.58l.14-.33,5.87.19Z" transform="translate(-29.03 -7.27)"/><path class="cls-19" d="M58.77,25.06l5.78-.16.24.23L64.62,32l.06-.07-5.86.17-.26-.28Z" transform="translate(-29.03 -7.27)"/><path class="cls-19" d="M52.48,38q.23-3,.46-6.06l5.62-.17.26.28c-.06,2-.11,3.91-.17,5.87l.06-.07-6,.21Z" transform="translate(-29.03 -7.27)"/><path class="cls-14" d="M119.41,178.45h7c0,1.87,0,3.74,0,5.61h-7.1Z" transform="translate(-29.03 -7.27)"/><path class="cls-18" d="M144.33,171.36l6,.12q-.06,3.41-.13,6.81l-6,0C144.25,176,144.29,173.65,144.33,171.36Z" transform="translate(-29.03 -7.27)"/><path class="cls-15" d="M46.67,55.82V73.45l-5.85.35,0,0c0-2-.07-4-.11-6v-6c.06-2,.12-4,.19-5.92l0,.06Z" transform="translate(-29.03 -7.27)"/><path class="cls-18" d="M40.67,61.82v6l-5.66,0-.33.09c0-2,.1-3.95.14-5.92Z" transform="translate(-29.03 -7.27)"/><path class="cls-19" d="M35,67.76l5.66,0c0,2,.08,4,.11,6l-5.87.13C34.94,71.85,35,69.8,35,67.76Z" transform="translate(-29.03 -7.27)"/><path class="cls-18" d="M40.65,116.62l-5.6.07-.12-6.09,5.71.1C40.64,112.68,40.64,114.65,40.65,116.62Z" transform="translate(-29.03 -7.27)"/><path class="cls-15" d="M77.56,19c0-1.9,0-3.79,0-5.69l6.05,0-.06,5.66.07.26-5.95-.08Z" transform="translate(-29.03 -7.27)"/><path class="cls-19" d="M64.55,24.9l.21-5.71,5.94-.36.08.28L70.6,25l.06-.07-5.87.17Z" transform="translate(-29.03 -7.27)"/><path class="cls-9" d="M40.81,129.5l5.81.07.24,5.81-.33.08-5.72,0Z" transform="translate(-29.03 -7.27)"/><path class="cls-6" d="M144.21,141.5l-5.83-.27v-5.85l5.72.13Z" transform="translate(-29.03 -7.27)"/><path class="cls-16" d="M46.78,141.5c-.08-2-.16-4-.25-6l.33-.08,5.9.17-.07-.06c0,2,0,4-.08,6l-5.85-.08Z" transform="translate(-29.03 -7.27)"/><path class="cls-14" d="M46.76,141.43l5.85.08c0,1.93.09,3.86.14,5.79l-.13.1H46.79Z" transform="translate(-29.03 -7.27)"/><path class="cls-11" d="M58.78,153.57l-6-.2q-.07-3-.17-6l.13-.1,6,.21-.07-.06c.08,2,.17,4,.25,6Z" transform="translate(-29.03 -7.27)"/><path class="cls-9" d="M64.55,159.34H58.74c0-1.93,0-3.86,0-5.79l.11-.1,5.73,0c0,1.92,0,3.83,0,5.74Z" transform="translate(-29.03 -7.27)"/><path class="cls-11" d="M64.74,165.33q-.1-3-.19-6l.12-.12,5.94.31,0,5.77v.08Z" transform="translate(-29.03 -7.27)"/><path class="cls-9" d="M46.81,43.87V38l5.68,0,.28.06c0,1.94-.07,3.88-.1,5.81l.07-.06-5.87.06Z" transform="translate(-29.03 -7.27)"/><path class="cls-10" d="M40.71,49.93l.12-6,6-.1,0,0c0,2,0,4,0,6l-.31-.08-5.56,0Z" transform="translate(-29.03 -7.27)"/><path class="cls-18" d="M41,49.83l5.56,0c0,2,0,4,.07,6L40.84,56Q40.93,52.9,41,49.83Z" transform="translate(-29.03 -7.27)"/><path class="cls-2" d="M132.36,178.46h6c0,1.87,0,3.75,0,5.62l-6.08,0Z" transform="translate(-29.03 -7.27)"/><path class="cls-20" d="M40.93,80.76h5.46l.25,5.7-5.71.27Z" transform="translate(-29.03 -7.27)"/><path class="cls-20" d="M40.93,92.7h5.46l.25,5.7-5.71.27Z" transform="translate(-29.03 -7.27)"/><path class="cls-15" d="M40.65,116.62c0-2,0-3.94,0-5.92s.06-4,.1-6h6v18l-5.9-.18Z" transform="translate(-29.03 -7.27)"/><path class="cls-20" d="M101.52,171.31l-.09-5.94h17.68c.12,2.31.22,4.07.31,5.82Z" transform="translate(-29.03 -7.27)"/><path class="cls-20" d="M126.38,171.2v-5.46l5.71-.26c.1,2.24.19,4,.27,5.72Z" transform="translate(-29.03 -7.27)"/><path class="cls-16" d="M70.66,165.3c0-1.92,0-3.85,0-5.77l7-.1-.06-.06q.08,2.92.16,5.85l-.15.33Z" transform="translate(-29.03 -7.27)"/><path class="cls-15" d="M52.76,135.55l-5.9-.17-.24-5.81q.06-3.51.1-7h6Z" transform="translate(-29.03 -7.27)"/><path class="cls-15" d="M77.63,159.43l-7,.1-5.94-.31c0-1.91,0-3.82,0-5.74l.12-.13,5.93-.07,6.88.16C77.58,155.43,77.6,157.43,77.63,159.43Z" transform="translate(-29.03 -7.27)"/><path class="cls-15" d="M58.71,147.51l-6-.21c0-1.93-.09-3.86-.14-5.79s.06-4,.08-6h6Z" transform="translate(-29.03 -7.27)"/><path class="cls-15" d="M64.79,25.13,70.66,25v6.76l-6,.27C64.68,29.7,64.73,27.42,64.79,25.13Z" transform="translate(-29.03 -7.27)"/><path class="cls-21" d="M77.67,141.22H71l-.33-5.32h6.72C77.44,137.47,77.54,139.05,77.67,141.22Z" transform="translate(-29.03 -7.27)"/><path class="cls-21" d="M70.68,104.81h6.68l.24,5.47H70.92Z" transform="translate(-29.03 -7.27)"/><path class="cls-15" d="M70.6,25l.18-5.92L77.56,19l.12.12c0,2-.09,3.93-.13,5.89Z" transform="translate(-29.03 -7.27)"/><path class="cls-21" d="M70.5,61.87v5.52H65l-.34-5.27Z" transform="translate(-29.03 -7.27)"/><path class="cls-21" d="M89.52,68.07h5.73c.1,1.71.2,3.29.32,5.3H89.84Z" transform="translate(-29.03 -7.27)"/><path class="cls-21" d="M64.74,86.48H59l-.32-5.3h5.73Z" transform="translate(-29.03 -7.27)"/><path class="cls-21" d="M77.88,92.71V87l5.33-.25v5.73Z" transform="translate(-29.03 -7.27)"/><path class="cls-21" d="M101.52,92.86h5.53v5.53l-5.27.33Z" transform="translate(-29.03 -7.27)"/><path class="cls-21" d="M53.18,98.84h5.16v5.51H53.18Z" transform="translate(-29.03 -7.27)"/><path class="cls-21" d="M89.82,116.63v-5.72l5.29-.33v5.73Z" transform="translate(-29.03 -7.27)"/><path class="cls-21" d="M59,122.61v-5.73l5.44-.34.25,5.71Z" transform="translate(-29.03 -7.27)"/><path class="cls-21" d="M119.4,122.39h-5.52v-5.52l5.27-.34Z" transform="translate(-29.03 -7.27)"/><path class="cls-21" d="M83.76,135.11v-5.2h5.57l.23,5.2Z" transform="translate(-29.03 -7.27)"/><path class="cls-21" d="M101.76,141.52v-5.74l5.44-.34.25,5.72Z" transform="translate(-29.03 -7.27)"/><path class="cls-21" d="M126.4,135.66h5.52v5.52l-5.27.33C126.57,139.56,126.5,137.87,126.4,135.66Z" transform="translate(-29.03 -7.27)"/><path class="cls-15" d="M64.62,153.48l-5.73,0c-.08-2-.17-4-.25-6h6c0,2,.09,3.93.13,5.89Z" transform="translate(-29.03 -7.27)"/><path class="cls-20" d="M64.74,153.35c0-2-.09-3.93-.13-5.89h5.76c.12,2.3.21,4.06.3,5.82Z" transform="translate(-29.03 -7.27)"/><path class="cls-21" d="M95.29,147.43v5.73L90,153.4v-5.73Z" transform="translate(-29.03 -7.27)"/><path class="cls-20" d="M77.63,159.43c0-2,0-4-.08-6h5.68c.15,2.23.28,4.06.4,5.9l-.07.07-6,0Z" transform="translate(-29.03 -7.27)"/><path class="cls-21" d="M113.28,153.84V159h-5.51v-5.15Z" transform="translate(-29.03 -7.27)"/><path class="cls-21" d="M137.94,159.21h-5.2v-5.57l5.2-.23Z" transform="translate(-29.03 -7.27)"/><path class="cls-20" d="M77.55,25c0-2,.09-3.93.13-5.89l5.95.08v5.48Z" transform="translate(-29.03 -7.27)"/><path class="cls-20" d="M89.58,165.22l-6,.14.06,0,0-6,.07-.07,5.68.28Z" transform="translate(-29.03 -7.27)"/><path class="cls-15" d="M58.65,38c.06-2,.11-3.91.17-5.87l5.86-.17v5.77Z" transform="translate(-29.03 -7.27)"/><path class="cls-15" d="M52.66,43.91c0-1.93.06-3.87.1-5.81l6-.21v6Z" transform="translate(-29.03 -7.27)"/><path class="cls-15" d="M46.91,49.93c0-2,0-4,0-6l5.87-.06v5.74Z" transform="translate(-29.03 -7.27)"/><path class="cls-21" d="M83.35,43.88v5.74L77.9,50c-.08-2-.15-3.64-.25-5.72Z" transform="translate(-29.03 -7.27)"/><path class="cls-15" d="M83.56,159.41l0,6-5.87-.19-.15-5.85Z" transform="translate(-29.03 -7.27)"/></svg>