<?xml version="1.0" standalone="no"?>
<!DOCTYPE svg PUBLIC "-//W3C//DTD SVG 20010904//EN"
 "http://www.w3.org/TR/2001/REC-SVG-20010904/DTD/svg10.dtd">
<svg version="1.0" xmlns="http://www.w3.org/2000/svg"
 width="196.000000pt" height="196.000000pt" viewBox="0 0 196.000000 196.000000"
 preserveAspectRatio="xMidYMid meet">
<metadata>
Created by potrace 1.11, written by Peter Selinger 2001-2013
</metadata>
<g transform="translate(0.000000,196.000000) scale(0.100000,-0.100000)"
fill="#000000" stroke="none">
<path d="M679 1895 c-7 -1 -4 -37 3 -42 7 -4 8 -1 3 7 -5 8 -4 11 1 7 5 -3 20
3 34 13 l24 18 -32 -1 c-18 -1 -32 -2 -33 -2z m31 -11 c0 -8 -19 -13 -24 -6
-3 5 1 9 9 9 8 0 15 -2 15 -3z"/>
<path d="M736 1879 c-8 -12 -13 -25 -11 -28 3 -7 -4 -7 -117 -11 -57 -2 -58
-3 -58 -31 0 -29 0 -29 -62 -30 -35 0 -57 -3 -50 -6 6 -2 12 -9 12 -14 0 -6
-4 -7 -10 -4 -5 3 -10 1 -10 -5 0 -7 6 -10 14 -7 8 3 17 0 20 -8 3 -9 0 -12
-9 -9 -8 3 -20 2 -27 -2 -7 -5 -23 -7 -35 -5 -20 2 -23 -2 -23 -33 0 -33 -2
-36 -30 -36 -27 0 -30 -3 -30 -30 0 -28 -3 -30 -34 -30 -32 0 -35 -2 -34 -30
1 -17 -4 -36 -10 -42 -16 -16 -15 -31 1 -22 9 5 9 4 0 -6 -17 -19 -40 -21 -40
-4 0 7 4 11 9 8 4 -3 8 -1 8 5 0 5 -3 11 -7 14 -5 2 -3 2 4 1 7 -2 14 0 17 4
2 4 -7 9 -20 10 -15 1 -24 -3 -23 -11 1 -6 1 -34 0 -61 -1 -47 -2 -48 -29 -44
-28 4 -28 4 -31 -56 -2 -34 -3 -75 -4 -92 0 -26 -4 -31 -23 -31 -13 0 -24 4
-24 9 0 5 5 6 12 2 7 -5 8 -3 3 7 -7 11 -5 12 6 4 8 -5 6 -1 -6 9 -16 16 -17
18 -2 13 9 -4 17 -2 17 4 0 6 -8 9 -17 7 -17 -3 -18 -25 -20 -276 -2 -175 1
-272 7 -273 6 -1 16 -2 23 -3 6 -1 15 2 18 7 3 5 6 -9 7 -30 2 -151 3 -164 20
-162 37 3 42 -1 42 -41 0 -24 5 -40 12 -40 9 0 9 -3 0 -12 -7 -7 -12 -17 -12
-23 0 -5 5 -3 10 5 6 10 10 11 10 3 0 -7 3 -12 8 -12 24 4 32 -4 32 -31 0 -28
3 -30 35 -30 32 0 35 -2 35 -30 0 -27 3 -30 30 -30 27 0 30 -3 30 -31 0 -29 2
-31 30 -27 24 4 30 1 30 -14 0 -10 5 -18 10 -18 6 0 9 5 8 12 -2 7 5 12 15 13
9 0 16 -4 15 -10 -2 -5 -7 -9 -11 -7 -5 1 -7 -3 -4 -10 2 -7 10 -12 16 -10 7
1 9 -3 6 -9 -5 -8 -10 -8 -18 0 -6 6 -18 11 -27 11 -12 0 -12 -2 -1 -9 11 -7
11 -9 0 -14 -8 -3 0 -5 16 -5 86 2 95 0 95 -30 0 -27 2 -28 58 -30 31 -1 58
-7 60 -12 2 -6 8 -10 13 -10 6 0 8 4 5 8 -2 4 6 8 20 8 13 0 24 -4 24 -9 0 -5
-7 -6 -16 -3 -10 4 -13 2 -8 -6 4 -7 3 -8 -4 -4 -7 4 -10 2 -9 -6 2 -7 2 -10
0 -5 -7 12 -20 8 -20 -7 0 -11 51 -14 275 -15 245 -2 274 0 269 13 -4 9 -2 16
3 16 6 0 9 5 8 12 -2 7 11 12 32 14 19 1 61 3 93 5 55 3 57 4 57 31 0 27 2 28
48 29 26 1 53 1 60 0 6 -1 12 5 12 14 0 8 -5 15 -11 15 -5 0 -8 -4 -5 -8 3 -5
-1 -9 -9 -9 -8 0 -12 4 -9 8 2 4 -4 12 -13 18 -10 6 -13 11 -8 11 6 0 17 -6
24 -13 11 -10 12 -7 6 13 -7 24 -7 25 9 5 11 -14 15 -15 14 -5 -2 10 7 16 30
18 28 3 32 7 32 33 0 26 3 29 31 29 27 0 30 3 27 28 -3 24 1 27 30 30 29 3 32
6 32 36 0 17 6 44 12 58 l12 26 24 -31 c18 -25 22 -27 21 -12 -1 11 -1 41 -1
66 2 45 3 45 32 41 l30 -4 1 68 c1 38 1 82 1 97 -1 20 4 28 16 26 45 -4 44
-13 41 276 -2 151 -6 270 -10 264 -4 -8 -8 -7 -11 2 -3 9 -6 8 -11 -5 -4 -9
-3 -15 1 -12 4 3 8 -6 8 -19 0 -15 -5 -21 -13 -18 -7 3 -13 8 -14 12 0 3 -2
14 -4 24 -2 9 1 15 6 11 5 -3 9 -1 9 5 0 5 -4 11 -10 13 -5 2 -10 29 -12 61
-3 55 -4 57 -30 57 -24 0 -28 4 -29 30 -1 27 -4 52 -8 78 0 5 -8 9 -16 9 -8 0
-15 -4 -15 -9 0 -4 8 -8 18 -8 13 0 14 -2 4 -9 -8 -4 -13 -12 -13 -17 1 -5 -6
-9 -14 -9 -8 0 -14 4 -12 10 1 5 5 9 10 8 12 -5 8 15 -8 31 -8 8 -15 26 -15
40 0 22 -4 26 -30 26 -27 0 -30 3 -30 30 0 27 -3 30 -30 30 -30 0 -35 8 -30
54 1 15 -3 18 -24 14 -14 -3 -34 1 -43 8 -20 15 -37 18 -29 6 3 -5 -1 -9 -8
-9 -7 0 -13 6 -13 13 0 7 5 10 10 7 7 -4 8 1 3 13 -6 16 -4 15 17 -4 l25 -23
0 25 c0 17 -6 25 -17 24 -52 -4 -102 3 -100 15 4 30 -2 47 -17 47 -9 0 -12 -5
-8 -12 6 -10 5 -10 -7 -1 -9 7 -49 14 -89 16 -59 3 -74 7 -76 20 -3 20 12 32
21 17 4 -6 11 -7 17 -4 6 4 8 3 5 -2 -3 -6 4 -11 16 -11 17 -2 19 0 7 7 -13 9
-13 10 0 10 12 0 12 2 2 9 -8 4 -130 9 -272 10 -256 2 -258 2 -274 -20z m50
-21 c3 -4 -1 -5 -10 -4 -8 1 -18 5 -22 8 -3 4 1 5 10 4 8 -1 18 -5 22 -8z
m-305 -101 c-1 -12 -15 -9 -19 4 -3 6 1 10 8 8 6 -3 11 -8 11 -12z m-181 -191
c0 -2 -8 -10 -17 -17 -16 -13 -17 -12 -4 4 13 16 21 21 21 13z m1387 -11 c0
-8 -4 -12 -9 -9 -5 3 -6 10 -3 15 9 13 12 11 12 -6z m-1523 -181 c3 -8 2 -12
-4 -9 -6 3 -10 10 -10 16 0 14 7 11 14 -7z m-77 -169 c0 -8 -4 -12 -9 -9 -5 3
-6 10 -3 15 9 13 12 11 12 -6z m1778 -414 c3 -5 2 -12 -3 -15 -5 -3 -9 1 -9 9
0 17 3 19 12 6z m-1755 -7 c0 -8 -19 -13 -24 -6 -3 5 1 9 9 9 8 0 15 -2 15 -3z
m1697 -209 c0 -8 -4 -12 -9 -9 -5 3 -6 10 -3 15 9 13 12 11 12 -6z m-1575
-127 c-13 -13 -24 5 -16 27 7 16 8 16 17 0 6 -11 6 -20 -1 -27z m1455 -43 c0
-8 -4 -15 -9 -15 -10 0 -11 14 -1 23 9 10 10 9 10 -8z m-1413 -3 c3 -5 -1 -9
-9 -9 -8 0 -12 4 -9 9 3 4 7 8 9 8 2 0 6 -4 9 -8z m512 -318 c1 -9 0 -13 -4
-10 -3 4 -7 14 -8 22 -1 9 0 13 4 10 3 -4 7 -14 8 -22z m-56 -4 c0 -5 -4 -10
-10 -10 -5 0 -10 5 -10 10 0 6 5 10 10 10 6 0 10 -4 10 -10z"/>
<path d="M1223 1867 c0 -8 6 -14 14 -14 9 0 10 4 2 14 -6 7 -12 13 -14 13 -1
0 -2 -6 -2 -13z"/>
<path d="M69 727 c-6 -11 -4 -57 4 -57 5 0 7 6 4 13 -3 8 1 14 8 14 7 0 11 -6
8 -14 -3 -7 -1 -13 4 -13 18 0 8 53 -10 56 -9 1 -17 2 -18 1z m31 -13 c0 -8
-19 -13 -24 -6 -3 5 1 9 9 9 8 0 15 -2 15 -3z"/>
<path d="M1854 700 c0 -16 4 -30 9 -30 5 0 7 7 4 14 -4 10 -1 13 8 9 8 -3 12
-9 9 -14 -3 -5 -1 -9 4 -9 5 0 9 14 8 30 0 17 -5 30 -9 30 -5 0 -6 -8 -3 -17
6 -17 5 -17 -8 0 -18 24 -22 22 -22 -13z"/>
<path d="M1725 449 c-10 -15 1 -23 20 -15 9 3 13 10 10 16 -8 13 -22 13 -30
-1z"/>
<path d="M1234 85 c0 -17 6 -21 26 -20 17 1 25 7 25 20 0 13 -8 19 -25 20 -20
1 -26 -3 -26 -20z m43 -1 c0 -10 -10 -11 -35 -5 -2 1 -1 5 2 9 8 13 33 10 33
-4z"/>
</g>
</svg>
